<?xml version="1.0" encoding="utf-8"?>
<!-- Generator: Adobe Illustrator 16.0.0, SVG Export Plug-In . SVG Version: 6.00 Build 0)  -->
<!DOCTYPE svg PUBLIC "-//W3C//DTD SVG 1.1//EN" "http://www.w3.org/Graphics/SVG/1.1/DTD/svg11.dtd">
<svg version="1.1" id="Layer_1_copy" xmlns="http://www.w3.org/2000/svg" xmlns:xlink="http://www.w3.org/1999/xlink" x="0px"
	 y="0px" width="475px" height="475px" viewBox="0 0 475 475" enable-background="new 0 0 475 475" xml:space="preserve">
<g>
	<rect x="175" y="250" fill="none" width="25" height="25"/>
	<rect x="250" y="250" fill="none" width="25" height="25"/>
	<polygon fill="#CC5261" points="450,250 425,250 425,275 450,275 475,275 475,250 475,225 450,225 	"/>
	<polygon fill="#CC5261" points="450,100 425,100 425,125 425,150 400,150 400,175 400,200 400,225 425,225 425,200 450,200 
		450,175 475,175 475,150 475,125 475,100 	"/>
	<rect x="425" y="300" fill="#CC5261" width="25" height="25"/>
	<polygon fill="#CC5261" points="400,350 400,325 375,325 375,350 350,350 325,350 325,375 300,375 300,400 325,400 350,400 
		375,400 375,425 375,450 375,475 400,475 425,475 425,450 425,425 425,400 425,375 400,375 	"/>
	<polygon fill="#CC5261" points="375,125 375,100 350,100 350,75 350,50 325,50 325,75 325,100 325,125 350,125 	"/>
	<path fill="#CC5261" d="M300,300h25v-25v-25v-25v-25h-25h-25h-25h-25h-25h-25h-25v25v25v25v25h25v25h25h25h25h25h25V300z M250,250
		h25v25h-25V250z M175,250h25v25h-25V250z"/>
	<polygon fill="#CC5261" points="275,150 250,150 250,175 250,200 275,200 300,200 300,175 300,150 	"/>
	<polygon fill="#CC5261" points="175,400 175,425 175,450 175,475 200,475 200,450 225,450 225,425 225,400 200,400 	"/>
	<polygon fill="#CC5261" points="175,200 200,200 200,175 200,150 175,150 150,150 150,175 150,200 	"/>
	<polygon fill="#CC5261" points="175,100 175,75 150,75 150,50 125,50 125,75 125,100 150,100 	"/>
	<polygon fill="#CC5261" points="25,325 25,350 50,350 75,350 75,325 50,325 	"/>
	<polygon fill="#CC5261" points="25,250 25,275 50,275 75,275 75,250 50,250 	"/>
</g>
<g>
	<path fill="none" d="M275,125h-25h-25v25v25v25h-25v-25v-25v-25h-25h-25h-25v25v25v25h25v25v25v25v25h25v25h25h25h25h25h25v-25h25
		v-25v-25v-25v-25v-25v-25v-25h-25H275z M200,275h-25v-25h25V275z M275,275h-25v-25h25V275z"/>
	<polygon fill="#F49DCB" points="375,125 350,125 325,125 325,150 325,175 325,200 325,225 325,250 325,275 325,300 300,300 
		300,325 275,325 250,325 225,325 200,325 175,325 175,300 150,300 150,275 150,250 150,225 150,200 125,200 125,175 125,150 
		125,125 150,125 175,125 200,125 200,150 200,175 200,200 225,200 225,175 225,150 225,125 250,125 275,125 300,125 325,125 
		325,100 325,75 325,50 325,25 300,25 300,50 300,75 275,75 250,75 225,75 200,75 175,75 175,100 150,100 125,100 125,75 125,50 
		100,50 100,75 100,100 100,125 100,150 75,150 75,125 75,100 50,100 25,100 25,125 25,150 50,150 50,175 50,200 75,200 75,225 
		100,225 100,250 100,275 100,300 125,300 125,325 125,350 150,350 150,375 150,400 150,425 150,450 150,475 175,475 175,450 
		175,425 175,400 200,400 225,400 250,400 275,400 300,400 300,375 325,375 325,350 350,350 375,350 375,325 400,325 400,300 
		400,275 400,250 400,225 400,200 400,175 400,150 400,125 	"/>
	<rect x="250" y="250" fill="#F49DCB" width="25" height="25"/>
	<rect x="175" y="250" fill="#F49DCB" width="25" height="25"/>
</g>
<g>
	<polygon fill="#FFFFFF" points="450,175 450,200 425,200 425,225 400,225 400,250 400,275 400,300 400,325 400,350 400,375 
		425,375 425,350 450,350 450,325 425,325 425,300 450,300 475,300 475,275 450,275 425,275 425,250 450,250 450,225 475,225 
		475,200 475,175 	"/>
	<polygon fill="#FFFFFF" points="300,200 325,200 325,175 325,150 325,125 300,125 275,125 250,125 225,125 225,150 225,175 
		225,200 250,200 250,175 250,150 275,150 300,150 300,175 	"/>
	<polygon fill="#FFFFFF" points="175,150 200,150 200,125 175,125 150,125 125,125 125,150 125,175 125,200 150,200 150,175 
		150,150 	"/>
	<polygon fill="#FFFFFF" points="125,325 125,300 100,300 100,275 100,250 100,225 75,225 75,200 50,200 50,175 25,175 0,175 0,200 
		0,225 25,225 25,250 50,250 75,250 75,275 50,275 25,275 25,300 25,325 50,325 75,325 75,350 50,350 50,375 75,375 75,400 100,400 
		125,400 150,400 150,375 150,350 125,350 	"/>
</g>
</svg>
