<?xml version="1.0" encoding="utf-8"?>
<!-- Generator: Adobe Illustrator 16.0.0, SVG Export Plug-In . SVG Version: 6.00 Build 0)  -->
<!DOCTYPE svg PUBLIC "-//W3C//DTD SVG 1.1//EN" "http://www.w3.org/Graphics/SVG/1.1/DTD/svg11.dtd">
<svg version="1.1" id="Layer_1" xmlns="http://www.w3.org/2000/svg" xmlns:xlink="http://www.w3.org/1999/xlink" x="0px" y="0px"
	 width="500px" height="500px" viewBox="0 0 500 500" enable-background="new 0 0 500 500" xml:space="preserve">
<g>
	<path fill="none" d="M58.956,268.881c-0.189,0.017-0.378,0.034-0.568,0.051C58.578,268.915,58.767,268.897,58.956,268.881z"/>
	<path fill="none" d="M53.591,269.312c-0.171,0.012-0.341,0.024-0.512,0.036C53.25,269.336,53.42,269.323,53.591,269.312z"/>
	<path fill="none" d="M28.867,269.326c-0.138-0.017-0.27-0.036-0.406-0.053C28.597,269.29,28.729,269.31,28.867,269.326z"/>
	<path fill="none" d="M56.124,269.122c-0.172,0.014-0.346,0.026-0.519,0.04C55.778,269.148,55.951,269.136,56.124,269.122z"/>
	<path fill="none" d="M19.806,322.44c-0.094-0.15-0.189-0.3-0.281-0.452C19.617,322.141,19.712,322.29,19.806,322.44z"/>
	<path fill="none" d="M23.631,327.333c-0.121-0.125-0.239-0.252-0.357-0.379C23.393,327.081,23.511,327.208,23.631,327.333z"/>
	<path fill="none" d="M22.288,325.843c-0.089-0.105-0.18-0.208-0.268-0.314C22.108,325.635,22.199,325.737,22.288,325.843z"/>
	<path fill="none" d="M24.945,328.62c-0.008-0.007-0.016-0.016-0.024-0.022C24.929,328.604,24.937,328.613,24.945,328.62z"/>
	<path fill="none" d="M20.886,324.054c-0.082-0.114-0.16-0.233-0.241-0.349C20.726,323.821,20.803,323.939,20.886,324.054z"/>
	<path fill="none" d="M34.259,269.743c-0.236-0.011-0.471-0.021-0.704-0.034C33.789,269.721,34.023,269.732,34.259,269.743z"/>
	<path fill="none" d="M35.975,269.806c-0.237-0.007-0.47-0.015-0.704-0.023C35.505,269.791,35.738,269.799,35.975,269.806z"/>
	<path fill="none" d="M47.788,269.652c-0.118,0.006-0.236,0.01-0.354,0.015C47.552,269.662,47.669,269.658,47.788,269.652z"/>
	<path fill="none" d="M30.869,269.525c-0.177-0.015-0.357-0.028-0.532-0.045C30.511,269.497,30.692,269.511,30.869,269.525z"/>
	<path fill="none" d="M32.571,269.652c-0.221-0.015-0.443-0.028-0.66-0.044C32.128,269.624,32.35,269.638,32.571,269.652z"/>
	<path fill="none" d="M42.438,269.826c-0.183,0.004-0.365,0.006-0.547,0.009C42.073,269.832,42.254,269.83,42.438,269.826z"/>
	<path fill="none" d="M45.321,269.75c-0.199,0.007-0.398,0.014-0.597,0.02C44.923,269.764,45.122,269.757,45.321,269.75z"/>
	<path fill="none" d="M37.724,269.843c-0.202-0.003-0.398-0.008-0.598-0.012C37.326,269.835,37.522,269.84,37.724,269.843z"/>
	<path fill="none" d="M39.548,269.855c0.083,0,0.17-0.002,0.254-0.002c-0.115,0-0.232,0.001-0.347,0.001
		C39.487,269.854,39.518,269.855,39.548,269.855z"/>
	<path fill="none" d="M50.781,269.493c-0.216,0.013-0.433,0.025-0.649,0.038C50.349,269.519,50.564,269.506,50.781,269.493z"/>
	<path fill="none" d="M47.235,336.409c-0.204,0.014-0.408,0.023-0.612,0.033C46.827,336.433,47.031,336.423,47.235,336.409z"/>
	<path fill="none" d="M443.556,334.058c-0.167-0.072-0.336-0.14-0.503-0.215C443.22,333.918,443.388,333.985,443.556,334.058z"/>
	<path fill="none" d="M50.483,336.016c-0.037,0.007-0.074,0.011-0.111,0.018C50.409,336.026,50.446,336.022,50.483,336.016z"/>
	<path fill="none" d="M43.21,336.415c-0.032-0.002-0.063-0.006-0.095-0.009C43.147,336.409,43.179,336.413,43.21,336.415z"/>
	<path fill="none" d="M45.222,336.483c0.121,0,0.242-0.009,0.362-0.011c-0.192,0.002-0.384,0.005-0.576,0.004
		C45.08,336.477,45.151,336.483,45.222,336.483z"/>
	<path fill="none" d="M55.908,334.495c-0.196,0.075-0.394,0.147-0.591,0.218C55.515,334.642,55.711,334.571,55.908,334.495z"/>
	<path fill="none" d="M52.6,335.547c-0.169,0.043-0.339,0.091-0.509,0.131C52.261,335.638,52.43,335.59,52.6,335.547z"/>
	<path fill="none" d="M57.484,333.842c-0.169,0.076-0.339,0.145-0.509,0.218C57.145,333.986,57.315,333.918,57.484,333.842z"/>
	<path fill="none" d="M54.293,335.061c-0.197,0.063-0.395,0.126-0.593,0.186C53.898,335.187,54.096,335.124,54.293,335.061z"/>
	<path fill="none" d="M30.099,332.396c-0.118-0.069-0.238-0.134-0.356-0.204C29.86,332.262,29.98,332.326,30.099,332.396z"/>
	<path fill="none" d="M26.738,330.124c-0.136-0.106-0.272-0.212-0.407-0.32C26.466,329.912,26.602,330.018,26.738,330.124z"/>
	<path fill="none" d="M31.816,333.322c-0.156-0.077-0.31-0.157-0.463-0.237C31.506,333.165,31.66,333.245,31.816,333.322z"/>
	<path fill="none" d="M28.238,331.226c-0.118-0.08-0.232-0.165-0.349-0.247C28.006,331.061,28.121,331.146,28.238,331.226z"/>
	<path fill="none" d="M33.448,334.081c-0.024-0.01-0.048-0.022-0.072-0.032C33.4,334.06,33.424,334.071,33.448,334.081z"/>
	<path fill="none" d="M39.484,335.921c-0.131-0.025-0.264-0.048-0.395-0.075C39.22,335.873,39.353,335.896,39.484,335.921z"/>
	<path fill="none" d="M41.413,336.233c-0.172-0.022-0.344-0.047-0.515-0.072C41.069,336.187,41.241,336.211,41.413,336.233z"/>
	<path fill="none" d="M37.362,335.432c-0.139-0.037-0.277-0.08-0.416-0.12C37.085,335.352,37.223,335.395,37.362,335.432z"/>
	<path fill="none" d="M35.602,334.893c-0.163-0.055-0.326-0.109-0.488-0.167C35.276,334.783,35.439,334.838,35.602,334.893z"/>
	<path fill="none" d="M48.864,336.257c-0.179,0.021-0.359,0.037-0.539,0.056C48.505,336.294,48.685,336.278,48.864,336.257z"/>
	<path fill="none" d="M30.717,210.704c-0.41-0.077-0.812-0.159-1.209-0.243C29.905,210.545,30.308,210.627,30.717,210.704z"/>
	<path fill="none" d="M32.172,210.958c-0.456-0.074-0.908-0.151-1.352-0.234C31.264,210.807,31.716,210.884,32.172,210.958z"/>
	<path fill="none" d="M27.88,210.086c-0.404-0.102-0.798-0.208-1.185-0.319C27.082,209.878,27.477,209.985,27.88,210.086z"/>
	<path fill="none" d="M29.156,210.385c-0.357-0.079-0.709-0.16-1.055-0.245C28.447,210.225,28.799,210.306,29.156,210.385z"/>
	<path fill="none" d="M33.669,211.185c-0.381-0.054-0.759-0.11-1.133-0.168C32.911,211.075,33.288,211.131,33.669,211.185z"/>
	<path fill="none" d="M40.24,211.846c-0.487-0.032-0.973-0.066-1.456-0.105C39.268,211.78,39.753,211.814,40.24,211.846z"/>
	<path fill="none" d="M38.741,211.738c-0.496-0.04-0.989-0.084-1.479-0.131C37.752,211.654,38.245,211.698,38.741,211.738z"/>
	<path fill="none" d="M36.883,211.569c-0.399-0.04-0.796-0.083-1.191-0.127C36.087,211.487,36.484,211.529,36.883,211.569z"/>
	<path fill="none" d="M35.387,211.407c-0.478-0.056-0.951-0.116-1.419-0.18C34.436,211.291,34.909,211.351,35.387,211.407z"/>
	<path fill="none" d="M24.008,208.862c-0.288-0.115-0.567-0.233-0.838-0.355C23.441,208.629,23.72,208.747,24.008,208.862z"/>
	<path fill="none" d="M21.992,207.929c-0.283-0.155-0.55-0.316-0.807-0.481C21.441,207.612,21.708,207.773,21.992,207.929z"/>
	<path fill="none" d="M20.244,206.77c-0.219-0.179-0.424-0.363-0.613-0.552C19.82,206.407,20.025,206.591,20.244,206.77z"/>
	<path fill="none" d="M20.98,207.311c-0.2-0.134-0.39-0.272-0.571-0.414C20.59,207.038,20.781,207.176,20.98,207.311z"/>
	<path fill="none" d="M26.404,209.682c-0.304-0.09-0.602-0.183-0.894-0.278C25.802,209.499,26.1,209.592,26.404,209.682z"/>
	<path fill="none" d="M19.52,206.097c-0.149-0.158-0.288-0.319-0.416-0.484C19.231,205.778,19.37,205.939,19.52,206.097z"/>
	<path fill="none" d="M25.22,209.308c-0.361-0.123-0.714-0.25-1.054-0.381C24.506,209.059,24.859,209.186,25.22,209.308z"/>
	<path fill="none" d="M22.9,208.384c-0.276-0.13-0.545-0.263-0.801-0.4C22.355,208.121,22.623,208.254,22.9,208.384z"/>
	<path fill="none" d="M41.9,211.942c-0.424-0.021-0.848-0.045-1.271-0.072C41.053,211.897,41.477,211.921,41.9,211.942z"/>
	<path fill="none" d="M23.548,268.333c-0.124-0.034-0.253-0.067-0.374-0.104C23.295,268.266,23.424,268.299,23.548,268.333z"/>
	<path fill="none" d="M19.711,266.601c-0.079-0.062-0.158-0.122-0.23-0.186C19.553,266.479,19.632,266.539,19.711,266.601z"/>
	<path fill="none" d="M60.295,211.488c-0.147,0.017-0.303,0.032-0.453,0.047C59.993,211.52,60.148,211.505,60.295,211.488z"/>
	<path fill="none" d="M20.412,267.076c-0.096-0.057-0.187-0.115-0.276-0.174C20.226,266.961,20.316,267.02,20.412,267.076z"/>
	<path fill="none" d="M19.121,266.061c-0.053-0.058-0.112-0.113-0.161-0.173C19.009,265.947,19.068,266.003,19.121,266.061z"/>
	<path fill="none" d="M21.226,267.504c-0.101-0.047-0.192-0.097-0.289-0.146C21.034,267.407,21.125,267.457,21.226,267.504z"/>
	<path fill="none" d="M24.793,268.647c-0.162-0.037-0.323-0.073-0.48-0.111C24.47,268.574,24.631,268.61,24.793,268.647z"/>
	<path fill="none" d="M26.079,268.909c-0.177-0.032-0.351-0.065-0.523-0.1C25.728,268.844,25.901,268.877,26.079,268.909z"/>
	<path fill="none" d="M27.436,269.135c-0.178-0.026-0.349-0.056-0.522-0.083C27.087,269.079,27.258,269.108,27.436,269.135z"/>
	<path fill="none" d="M22.149,267.889c-0.055-0.021-0.103-0.043-0.156-0.063C22.046,267.846,22.094,267.868,22.149,267.889z"/>
	<path fill="none" d="M55.883,211.863c-0.21,0.013-0.419,0.026-0.633,0.039C55.464,211.889,55.672,211.876,55.883,211.863z"/>
	<path fill="none" d="M57.451,211.753c-0.205,0.016-0.413,0.032-0.622,0.046C57.039,211.785,57.245,211.77,57.451,211.753z"/>
	<path fill="none" d="M50.213,212.082c-0.208,0.003-0.419,0.004-0.629,0.007C49.794,212.086,50.004,212.085,50.213,212.082z"/>
	<path fill="none" d="M48.162,212.099c0.091,0,0.18-0.002,0.271-0.002c-0.396,0.001-0.793,0-1.193-0.002
		C47.549,212.097,47.856,212.099,48.162,212.099z"/>
	<path fill="none" d="M45.225,212.064c-0.409-0.009-0.819-0.021-1.229-0.035C44.406,212.043,44.815,212.055,45.225,212.064z"/>
	<path fill="none" d="M47.068,212.094c-0.496-0.004-0.994-0.012-1.494-0.022C46.074,212.082,46.572,212.089,47.068,212.094z"/>
	<path fill="none" d="M43.656,212.019c-0.5-0.018-1-0.039-1.5-0.062C42.656,211.98,43.156,212.001,43.656,212.019z"/>
	<path fill="none" d="M51.948,212.043c-0.086,0.002-0.175,0.003-0.261,0.006C51.773,212.047,51.861,212.046,51.948,212.043z"/>
	<path fill="none" d="M54.181,211.956c-0.188,0.009-0.374,0.019-0.565,0.027C53.807,211.975,53.992,211.965,54.181,211.956z"/>
	<path fill="none" d="M450.155,336.031c-0.033-0.006-0.067-0.01-0.102-0.016C450.088,336.021,450.121,336.025,450.155,336.031z"/>
	<path fill="none" d="M446.919,211.983c-0.19-0.008-0.375-0.018-0.562-0.027C446.544,211.965,446.729,211.975,446.919,211.983z"/>
	<path fill="none" d="M448.845,212.049c-0.085-0.002-0.172-0.003-0.256-0.006C448.673,212.046,448.76,212.047,448.845,212.049z"/>
	<path fill="none" d="M459.908,211.871c-0.425,0.026-0.851,0.05-1.277,0.072C459.058,211.921,459.483,211.897,459.908,211.871z"/>
	<path fill="none" d="M443.707,211.8c-0.21-0.015-0.417-0.03-0.622-0.046C443.29,211.77,443.497,211.785,443.707,211.8z"/>
	<path fill="none" d="M450.951,212.088c-0.209-0.002-0.42-0.003-0.628-0.007C450.531,212.085,450.741,212.086,450.951,212.088z"/>
	<path fill="none" d="M456.543,212.029c-0.412,0.014-0.823,0.025-1.233,0.035C455.72,212.055,456.131,212.043,456.543,212.029z"/>
	<path fill="none" d="M458.381,211.956c-0.501,0.024-1.002,0.045-1.503,0.062C457.379,212.001,457.88,211.98,458.381,211.956z"/>
	<path fill="none" d="M454.963,212.072c-0.5,0.01-0.999,0.018-1.495,0.022C453.964,212.089,454.463,212.082,454.963,212.072z"/>
	<path fill="none" d="M452.374,212.099c0.306,0,0.613-0.002,0.922-0.004c-0.4,0.002-0.797,0.003-1.193,0.002
		C452.193,212.097,452.283,212.099,452.374,212.099z"/>
	<path fill="none" d="M445.215,334.712c-0.195-0.07-0.391-0.141-0.584-0.216C444.824,334.571,445.02,334.642,445.215,334.712z"/>
	<path fill="none" d="M480.399,266.902c-0.09,0.059-0.18,0.117-0.275,0.174C480.22,267.02,480.31,266.961,480.399,266.902z"/>
	<path fill="none" d="M478.543,267.825c-0.054,0.021-0.102,0.043-0.156,0.063C478.441,267.868,478.489,267.846,478.543,267.825z"/>
	<path fill="none" d="M442.188,211.68c-0.193-0.017-0.387-0.034-0.576-0.051C441.802,211.646,441.995,211.663,442.188,211.68z"/>
	<path fill="none" d="M477.361,268.229c-0.12,0.036-0.25,0.069-0.374,0.104C477.111,268.299,477.241,268.266,477.361,268.229z"/>
	<path fill="none" d="M479.599,267.358c-0.097,0.049-0.188,0.099-0.289,0.146C479.41,267.457,479.502,267.407,479.599,267.358z"/>
	<path fill="none" d="M440.693,211.536c-0.15-0.016-0.306-0.031-0.453-0.047C440.388,211.505,440.543,211.52,440.693,211.536z"/>
	<path fill="none" d="M481.575,265.888c-0.048,0.06-0.107,0.115-0.161,0.173C481.468,266.003,481.527,265.947,481.575,265.888z"/>
	<path fill="none" d="M481.055,266.415c-0.072,0.063-0.151,0.124-0.229,0.186C480.903,266.539,480.982,266.479,481.055,266.415z"/>
	<path fill="none" d="M476.223,268.536c-0.156,0.038-0.318,0.074-0.479,0.111C475.904,268.61,476.066,268.574,476.223,268.536z"/>
	<path fill="none" d="M478.443,207.98c-0.26,0.139-0.53,0.273-0.811,0.404C477.913,208.254,478.184,208.12,478.443,207.98z"/>
	<path fill="none" d="M475.03,209.402c-0.295,0.097-0.596,0.19-0.903,0.281C474.435,209.592,474.735,209.499,475.03,209.402z"/>
	<path fill="none" d="M477.369,208.506c-0.274,0.123-0.557,0.243-0.848,0.359C476.812,208.749,477.095,208.629,477.369,208.506z"/>
	<path fill="none" d="M476.371,208.926c-0.341,0.133-0.695,0.26-1.059,0.383C475.676,209.186,476.03,209.059,476.371,208.926z"/>
	<path fill="none" d="M479.353,207.446c-0.258,0.166-0.525,0.328-0.81,0.483C478.827,207.774,479.095,207.612,479.353,207.446z"/>
	<path fill="none" d="M481.959,204.809c-0.113,0.218-0.251,0.428-0.398,0.634C481.708,205.237,481.846,205.026,481.959,204.809z"/>
	<path fill="none" d="M481.433,205.612c-0.129,0.166-0.268,0.328-0.418,0.486C481.165,205.94,481.304,205.778,481.433,205.612z"/>
	<path fill="none" d="M480.129,206.896c-0.183,0.142-0.374,0.281-0.575,0.417C479.755,207.177,479.946,207.038,480.129,206.896z"/>
	<path fill="none" d="M480.905,206.217c-0.189,0.19-0.395,0.374-0.614,0.553C480.511,206.591,480.716,206.407,480.905,206.217z"/>
	<path fill="none" d="M473.843,209.767c-0.388,0.111-0.784,0.218-1.189,0.32C473.059,209.985,473.455,209.878,473.843,209.767z"/>
	<path fill="none" d="M464.848,211.441c-0.396,0.045-0.796,0.088-1.198,0.128C464.052,211.529,464.451,211.486,464.848,211.441z"/>
	<path fill="none" d="M468.003,211.016c-0.377,0.06-0.758,0.116-1.142,0.17C467.245,211.132,467.626,211.075,468.003,211.016z"/>
	<path fill="none" d="M466.57,211.227c-0.47,0.064-0.944,0.125-1.423,0.181C465.626,211.352,466.101,211.291,466.57,211.227z"/>
	<path fill="none" d="M463.276,211.606c-0.492,0.047-0.986,0.092-1.483,0.132C462.29,211.698,462.784,211.654,463.276,211.606z"/>
	<path fill="none" d="M472.441,210.138c-0.35,0.086-0.704,0.168-1.065,0.248C471.737,210.306,472.092,210.224,472.441,210.138z"/>
	<path fill="none" d="M469.718,210.724c-0.445,0.083-0.898,0.16-1.356,0.235C468.819,210.884,469.272,210.807,469.718,210.724z"/>
	<path fill="none" d="M461.76,211.741c-0.486,0.039-0.977,0.073-1.467,0.105C460.783,211.814,461.273,211.779,461.76,211.741z"/>
	<path fill="none" d="M471.031,210.46c-0.401,0.085-0.809,0.167-1.223,0.246C470.223,210.628,470.629,210.546,471.031,210.46z"/>
	<path fill="none" d="M445.285,211.901c-0.213-0.012-0.422-0.025-0.632-0.039C444.863,211.876,445.071,211.889,445.285,211.901z"/>
	<path fill="none" d="M467.164,334.047c-0.026,0.011-0.052,0.023-0.077,0.035C467.112,334.07,467.138,334.058,467.164,334.047z"/>
	<path fill="none" d="M461.447,335.846c-0.132,0.027-0.264,0.05-0.396,0.075C461.184,335.896,461.315,335.873,461.447,335.846z"/>
	<path fill="none" d="M469.186,333.084c-0.155,0.08-0.311,0.161-0.467,0.239C468.875,333.245,469.03,333.164,469.186,333.084z"/>
	<path fill="none" d="M477.265,326.95c-0.12,0.129-0.24,0.259-0.362,0.385C477.024,327.209,477.145,327.079,477.265,326.95z"/>
	<path fill="none" d="M465.423,334.725c-0.163,0.059-0.327,0.113-0.49,0.168C465.096,334.838,465.26,334.783,465.423,334.725z"/>
	<path fill="none" d="M474.207,329.802c-0.137,0.11-0.275,0.218-0.413,0.325C473.933,330.019,474.07,329.912,474.207,329.802z"/>
	<path fill="none" d="M475.627,328.586c-0.014,0.012-0.025,0.024-0.038,0.036C475.602,328.61,475.613,328.598,475.627,328.586z"/>
	<path fill="none" d="M470.795,332.189c-0.119,0.072-0.241,0.139-0.361,0.208C470.554,332.328,470.675,332.262,470.795,332.189z"/>
	<path fill="none" d="M472.65,330.975c-0.118,0.084-0.235,0.171-0.354,0.253C472.416,331.146,472.532,331.059,472.65,330.975z"/>
	<path fill="none" d="M463.59,335.312c-0.139,0.04-0.277,0.083-0.417,0.12C463.312,335.395,463.451,335.352,463.59,335.312z"/>
	<path fill="none" d="M18.975,205.442c-0.148-0.206-0.285-0.416-0.398-0.634C18.69,205.026,18.827,205.236,18.975,205.442z"/>
	<path fill="none" d="M452.209,336.312c-0.179-0.019-0.357-0.034-0.536-0.056C451.852,336.278,452.03,336.294,452.209,336.312z"/>
	<path fill="none" d="M448.443,335.678c-0.167-0.04-0.334-0.087-0.501-0.129C448.109,335.591,448.275,335.638,448.443,335.678z"/>
	<path fill="none" d="M446.832,335.245c-0.195-0.059-0.391-0.121-0.585-0.183C446.441,335.124,446.637,335.187,446.832,335.245z"/>
	<path fill="none" d="M453.913,336.442c-0.204-0.01-0.408-0.02-0.612-0.033C453.505,336.423,453.709,336.433,453.913,336.442z"/>
	<path fill="none" d="M457.42,336.406c-0.031,0.003-0.062,0.007-0.095,0.009C457.357,336.413,457.389,336.409,457.42,336.406z"/>
	<path fill="none" d="M459.638,336.161c-0.171,0.025-0.343,0.05-0.515,0.072C459.295,336.211,459.467,336.187,459.638,336.161z"/>
	<path fill="none" d="M455.313,336.483c0.071,0,0.143-0.007,0.214-0.007c-0.192,0.001-0.384-0.002-0.576-0.004
		C455.072,336.475,455.193,336.483,455.313,336.483z"/>
	<path fill="none" d="M465.265,269.782c-0.234,0.009-0.467,0.017-0.703,0.023C464.798,269.799,465.03,269.791,465.265,269.782z"/>
	<path fill="none" d="M463.41,269.831c-0.2,0.004-0.397,0.009-0.599,0.012C463.013,269.84,463.21,269.835,463.41,269.831z"/>
	<path fill="none" d="M466.98,269.709c-0.233,0.013-0.468,0.023-0.704,0.034C466.513,269.732,466.747,269.721,466.98,269.709z"/>
	<path fill="none" d="M474.98,268.81c-0.172,0.034-0.346,0.067-0.523,0.1C474.635,268.877,474.808,268.844,474.98,268.81z"/>
	<path fill="none" d="M478.518,325.526c-0.09,0.109-0.184,0.214-0.274,0.321C478.334,325.74,478.428,325.636,478.518,325.526z"/>
	<path fill="none" d="M460.987,269.855c0.031,0,0.062-0.001,0.092-0.001c-0.114,0-0.231-0.001-0.346-0.001
		C460.817,269.854,460.903,269.855,460.987,269.855z"/>
	<path fill="none" d="M468.625,269.608c-0.218,0.016-0.439,0.029-0.66,0.044C468.186,269.638,468.407,269.624,468.625,269.608z"/>
	<path fill="none" d="M473.622,269.052c-0.174,0.027-0.345,0.057-0.522,0.083C473.277,269.108,473.448,269.079,473.622,269.052z"/>
	<path fill="none" d="M472.074,269.273c-0.136,0.017-0.267,0.036-0.405,0.053C471.807,269.31,471.938,269.29,472.074,269.273z"/>
	<path fill="none" d="M470.198,269.48c-0.174,0.017-0.354,0.03-0.531,0.045C469.844,269.511,470.024,269.497,470.198,269.48z"/>
	<path fill="none" d="M458.646,269.835c-0.183-0.003-0.364-0.005-0.548-0.009C458.281,269.83,458.463,269.832,458.646,269.835z"/>
	<path fill="none" d="M481.012,321.985c-0.094,0.154-0.188,0.306-0.284,0.458C480.823,322.291,480.918,322.14,481.012,321.985z"/>
	<path fill="none" d="M442.151,268.932c-0.193-0.017-0.384-0.034-0.575-0.051C441.768,268.897,441.958,268.915,442.151,268.932z"/>
	<path fill="none" d="M444.936,269.162c-0.175-0.014-0.352-0.026-0.527-0.04C444.584,269.136,444.76,269.148,444.936,269.162z"/>
	<path fill="none" d="M479.895,323.701c-0.083,0.117-0.162,0.238-0.246,0.354C479.732,323.939,479.812,323.818,479.895,323.701z"/>
	<path fill="none" d="M447.459,269.348c-0.174-0.012-0.346-0.024-0.519-0.037C447.113,269.323,447.285,269.336,447.459,269.348z"/>
	<path fill="none" d="M455.812,269.77c-0.199-0.006-0.398-0.013-0.598-0.02C455.413,269.757,455.612,269.764,455.812,269.77z"/>
	<path fill="none" d="M453.104,269.667c-0.119-0.005-0.237-0.009-0.356-0.015C452.866,269.658,452.984,269.662,453.104,269.667z"/>
	<path fill="none" d="M450.405,269.531c-0.218-0.013-0.435-0.025-0.652-0.038C449.971,269.506,450.188,269.519,450.405,269.531z"/>
	<path fill="none" d="M58.923,211.628c-0.189,0.018-0.383,0.034-0.577,0.051C58.541,211.663,58.734,211.646,58.923,211.628z"/>
	<g>
		<path fill="#FCFCFC" d="M442.151,268.932c0.745,0.066,1.498,0.13,2.257,0.19c0.176,0.014,0.353,0.026,0.527,0.04
			c0.665,0.052,1.333,0.102,2.005,0.148c0.173,0.013,0.345,0.025,0.519,0.037c0.762,0.053,1.527,0.101,2.294,0.146
			c0.218,0.013,0.435,0.025,0.652,0.038c0.78,0.044,1.562,0.085,2.342,0.121c0.119,0.006,0.237,0.01,0.356,0.015
			c0.705,0.031,1.409,0.059,2.11,0.083c0.199,0.007,0.398,0.014,0.598,0.02c0.767,0.024,1.529,0.043,2.286,0.057
			c0.184,0.004,0.365,0.006,0.548,0.009c0.702,0.011,1.398,0.017,2.088,0.019c0.114,0,0.231,0.001,0.346,0.001
			c0.583,0,1.161-0.004,1.732-0.012c0.201-0.003,0.398-0.008,0.599-0.012c0.386-0.007,0.771-0.015,1.151-0.025
			c0.236-0.007,0.469-0.015,0.703-0.023c0.34-0.012,0.678-0.024,1.012-0.039c0.236-0.011,0.471-0.021,0.704-0.034
			c0.332-0.018,0.659-0.036,0.984-0.057c0.221-0.015,0.442-0.028,0.66-0.044c0.353-0.024,0.698-0.054,1.042-0.083
			c0.177-0.015,0.357-0.028,0.531-0.045c0.501-0.047,0.992-0.098,1.471-0.154c0.139-0.017,0.27-0.036,0.405-0.053
			c0.348-0.044,0.691-0.09,1.025-0.139c0.178-0.026,0.349-0.056,0.522-0.083c0.283-0.046,0.562-0.093,0.835-0.143
			c0.178-0.032,0.352-0.065,0.523-0.1c0.26-0.052,0.514-0.106,0.763-0.162c0.161-0.037,0.323-0.073,0.479-0.111
			c0.264-0.064,0.516-0.133,0.765-0.203c0.124-0.034,0.254-0.067,0.374-0.104c0.357-0.107,0.702-0.221,1.025-0.341
			c0.055-0.021,0.103-0.043,0.156-0.063c0.268-0.103,0.524-0.21,0.767-0.321c0.101-0.047,0.192-0.097,0.289-0.146
			c0.183-0.091,0.359-0.185,0.525-0.282c0.096-0.057,0.186-0.115,0.275-0.174c0.15-0.098,0.292-0.198,0.426-0.302
			c0.078-0.062,0.157-0.122,0.229-0.186c0.132-0.114,0.249-0.233,0.359-0.354c0.054-0.058,0.113-0.113,0.161-0.173
			c0.149-0.183,0.281-0.371,0.384-0.569l0.69-1.328c7.64-14.703,1.914-32.814-12.788-40.454l-30.903-12.203
			c0.409,0.054,0.84,0.105,1.282,0.155c0.147,0.017,0.303,0.032,0.453,0.047c0.301,0.032,0.605,0.063,0.919,0.093
			c0.189,0.018,0.383,0.034,0.576,0.051c0.295,0.025,0.593,0.05,0.896,0.074c0.205,0.016,0.412,0.032,0.622,0.046
			c0.311,0.022,0.627,0.043,0.946,0.063c0.21,0.013,0.419,0.026,0.632,0.039c0.352,0.02,0.711,0.037,1.071,0.055
			c0.188,0.009,0.372,0.019,0.562,0.027c0.549,0.023,1.104,0.044,1.67,0.061c0.084,0.002,0.171,0.003,0.256,0.006
			c0.488,0.013,0.98,0.024,1.479,0.032c0.208,0.003,0.419,0.004,0.628,0.007c0.382,0.004,0.765,0.007,1.151,0.008
			c0.396,0.001,0.793,0,1.193-0.002c0.058,0,0.114,0,0.172-0.001c0.496-0.004,0.995-0.012,1.495-0.022
			c0.115-0.002,0.23-0.005,0.347-0.008c0.41-0.009,0.821-0.021,1.233-0.035c0.112-0.003,0.224-0.007,0.335-0.011
			c0.501-0.018,1.002-0.039,1.503-0.062c0.083-0.004,0.167-0.009,0.25-0.013c0.427-0.022,0.853-0.046,1.277-0.072
			c0.129-0.008,0.257-0.016,0.385-0.024c0.49-0.032,0.98-0.067,1.467-0.105c0.011-0.001,0.022-0.002,0.033-0.002
			c0.497-0.04,0.991-0.084,1.483-0.132c0.125-0.012,0.249-0.024,0.373-0.037c0.402-0.04,0.802-0.083,1.198-0.128
			c0.1-0.012,0.2-0.022,0.3-0.034c0.479-0.056,0.953-0.117,1.423-0.181c0.098-0.013,0.193-0.028,0.291-0.042
			c0.384-0.054,0.765-0.11,1.142-0.17c0.119-0.019,0.239-0.037,0.358-0.057c0.458-0.075,0.911-0.152,1.356-0.235
			c0.03-0.006,0.061-0.012,0.091-0.018c0.414-0.078,0.821-0.16,1.223-0.246c0.115-0.024,0.23-0.05,0.345-0.075
			c0.361-0.079,0.716-0.162,1.065-0.248c0.07-0.017,0.143-0.033,0.212-0.051c0.405-0.102,0.802-0.209,1.189-0.32
			c0.096-0.027,0.189-0.056,0.284-0.084c0.308-0.091,0.608-0.185,0.903-0.281c0.094-0.031,0.189-0.062,0.282-0.093
			c0.363-0.123,0.718-0.25,1.059-0.383c0.051-0.02,0.1-0.041,0.15-0.061c0.291-0.116,0.573-0.236,0.848-0.359
			c0.089-0.04,0.177-0.08,0.264-0.121c0.28-0.131,0.551-0.265,0.811-0.404c0.032-0.018,0.067-0.034,0.1-0.051
			c0.284-0.155,0.552-0.317,0.81-0.483c0.068-0.044,0.134-0.089,0.201-0.134c0.201-0.135,0.393-0.274,0.575-0.417
			c0.054-0.042,0.11-0.083,0.162-0.125c0.22-0.179,0.425-0.363,0.614-0.553c0.038-0.039,0.072-0.08,0.109-0.119
			c0.15-0.158,0.289-0.32,0.418-0.486c0.043-0.056,0.087-0.112,0.128-0.169c0.147-0.206,0.285-0.417,0.398-0.634l0.69-1.329
			c7.64-14.702,1.914-32.813-12.788-40.453l-64.599-33.566c6.296,20.547,9.58,42.396,9.58,64.821l-0.687,86.843l-0.198,1.432
			c-1.003,11.358-2.868,22.509-5.54,33.348l33.088,17.193c0.512,0.266,1.028,0.512,1.547,0.745c0.167,0.075,0.336,0.143,0.503,0.215
			c0.357,0.152,0.715,0.301,1.075,0.438c0.193,0.075,0.389,0.146,0.584,0.216c0.343,0.123,0.687,0.24,1.032,0.351
			c0.194,0.062,0.39,0.124,0.585,0.183c0.369,0.109,0.739,0.209,1.11,0.304c0.167,0.042,0.334,0.089,0.501,0.129
			c0.535,0.127,1.072,0.241,1.61,0.338c0.034,0.006,0.068,0.01,0.102,0.016c0.505,0.089,1.012,0.163,1.518,0.226
			c0.179,0.021,0.357,0.037,0.536,0.056c0.364,0.038,0.729,0.072,1.092,0.097c0.204,0.014,0.408,0.023,0.612,0.033
			c0.346,0.017,0.692,0.026,1.038,0.03c0.192,0.002,0.384,0.005,0.576,0.004c0.601-0.005,1.2-0.021,1.798-0.062
			c0.032-0.002,0.063-0.006,0.095-0.009c0.57-0.04,1.138-0.101,1.703-0.173c0.172-0.022,0.344-0.047,0.515-0.072
			c0.474-0.068,0.945-0.149,1.414-0.24c0.132-0.025,0.264-0.048,0.396-0.075c0.579-0.12,1.154-0.259,1.726-0.414
			c0.14-0.037,0.278-0.08,0.417-0.12c0.451-0.129,0.898-0.269,1.343-0.419c0.163-0.055,0.327-0.109,0.49-0.168
			c0.56-0.199,1.116-0.41,1.664-0.643c0.025-0.012,0.051-0.024,0.077-0.035c0.525-0.225,1.042-0.469,1.555-0.724
			c0.156-0.078,0.312-0.159,0.467-0.239c0.421-0.219,0.837-0.447,1.248-0.687c0.12-0.069,0.242-0.136,0.361-0.208
			c0.509-0.305,1.01-0.626,1.501-0.962c0.119-0.082,0.236-0.169,0.354-0.253c0.388-0.273,0.769-0.556,1.144-0.848
			c0.138-0.107,0.276-0.215,0.413-0.325c0.47-0.38,0.934-0.77,1.382-1.18c0.013-0.012,0.024-0.024,0.038-0.036
			c0.437-0.401,0.859-0.821,1.275-1.251c0.122-0.126,0.242-0.256,0.362-0.385c0.334-0.358,0.66-0.726,0.979-1.103
			c0.091-0.107,0.185-0.212,0.274-0.321c0.391-0.477,0.768-0.967,1.131-1.471c0.084-0.116,0.163-0.237,0.246-0.354
			c0.287-0.41,0.564-0.83,0.833-1.258c0.096-0.152,0.19-0.304,0.284-0.458c0.329-0.546,0.648-1.102,0.947-1.676l0.69-1.328
			c7.64-14.702,1.914-32.813-12.788-40.454l-30.569-9.86c0.749,0.073,1.515,0.145,2.284,0.214
			C441.768,268.897,441.958,268.915,442.151,268.932z"/>
		<path fill="#FCFCFC" d="M30.674,163.027c-14.702,7.64-20.428,25.751-12.788,40.453l0.69,1.329c0.113,0.218,0.25,0.428,0.398,0.634
			c0.041,0.058,0.085,0.114,0.128,0.17c0.128,0.165,0.267,0.326,0.416,0.484c0.038,0.04,0.072,0.081,0.112,0.121
			c0.188,0.189,0.394,0.374,0.613,0.552c0.053,0.043,0.11,0.085,0.165,0.127c0.181,0.141,0.372,0.279,0.571,0.414
			c0.068,0.046,0.134,0.092,0.204,0.137c0.257,0.165,0.524,0.326,0.807,0.481c0.035,0.019,0.072,0.036,0.107,0.055
			c0.256,0.138,0.525,0.271,0.801,0.4c0.089,0.042,0.179,0.083,0.27,0.123c0.271,0.122,0.55,0.24,0.838,0.355
			c0.054,0.021,0.104,0.043,0.159,0.065c0.34,0.132,0.692,0.259,1.054,0.381c0.095,0.032,0.193,0.063,0.29,0.095
			c0.292,0.096,0.59,0.188,0.894,0.278c0.098,0.029,0.193,0.058,0.292,0.086c0.386,0.111,0.781,0.217,1.185,0.319
			c0.073,0.018,0.148,0.035,0.221,0.053c0.346,0.085,0.697,0.167,1.055,0.245c0.117,0.025,0.234,0.051,0.352,0.076
			c0.397,0.084,0.799,0.166,1.209,0.243c0.035,0.007,0.068,0.014,0.103,0.021c0.443,0.083,0.896,0.16,1.352,0.234
			c0.121,0.02,0.243,0.039,0.365,0.058c0.374,0.059,0.751,0.115,1.133,0.168c0.1,0.014,0.198,0.029,0.298,0.042
			c0.468,0.063,0.941,0.124,1.419,0.18c0.102,0.012,0.204,0.023,0.306,0.035c0.395,0.045,0.792,0.087,1.191,0.127
			c0.126,0.013,0.252,0.025,0.378,0.037c0.491,0.047,0.983,0.092,1.479,0.131c0.015,0.001,0.029,0.002,0.043,0.003
			c0.483,0.039,0.969,0.073,1.456,0.105c0.13,0.008,0.26,0.017,0.39,0.024c0.423,0.026,0.847,0.05,1.271,0.072
			c0.085,0.004,0.17,0.009,0.256,0.014c0.5,0.024,1,0.044,1.5,0.062c0.113,0.004,0.226,0.007,0.339,0.011
			c0.411,0.014,0.82,0.025,1.229,0.035c0.117,0.002,0.233,0.005,0.35,0.008c0.5,0.01,0.998,0.018,1.494,0.022
			c0.058,0,0.115,0,0.173,0.001c0.4,0.002,0.797,0.003,1.193,0.002c0.386-0.001,0.769-0.004,1.15-0.008
			c0.209-0.002,0.421-0.003,0.629-0.007c0.496-0.008,0.987-0.019,1.474-0.032c0.086-0.002,0.175-0.003,0.261-0.006
			c0.564-0.017,1.12-0.037,1.668-0.061c0.191-0.008,0.376-0.018,0.565-0.027c0.36-0.017,0.718-0.035,1.069-0.054
			c0.214-0.012,0.423-0.025,0.633-0.039c0.319-0.02,0.636-0.041,0.946-0.063c0.209-0.015,0.417-0.03,0.622-0.046
			c0.304-0.023,0.602-0.048,0.896-0.074c0.193-0.017,0.388-0.034,0.577-0.051c0.314-0.03,0.618-0.061,0.919-0.093
			c0.15-0.016,0.306-0.031,0.453-0.047c0.443-0.049,0.873-0.101,1.282-0.155l-30.903,12.203
			c-14.702,7.64-20.428,25.751-12.788,40.454l0.69,1.328c0.103,0.198,0.234,0.387,0.383,0.569c0.049,0.06,0.108,0.115,0.161,0.173
			c0.111,0.121,0.228,0.24,0.359,0.354c0.073,0.063,0.151,0.124,0.23,0.186c0.133,0.104,0.275,0.204,0.425,0.302
			c0.09,0.059,0.181,0.117,0.276,0.174c0.166,0.098,0.343,0.191,0.525,0.282c0.096,0.049,0.188,0.099,0.289,0.146
			c0.242,0.111,0.499,0.219,0.767,0.321c0.054,0.021,0.101,0.043,0.156,0.063c0.324,0.12,0.667,0.233,1.025,0.341
			c0.121,0.036,0.25,0.069,0.374,0.104c0.249,0.07,0.501,0.139,0.765,0.203c0.157,0.038,0.318,0.074,0.48,0.111
			c0.249,0.056,0.502,0.11,0.762,0.162c0.172,0.034,0.346,0.067,0.523,0.1c0.272,0.05,0.552,0.097,0.835,0.143
			c0.174,0.027,0.345,0.057,0.522,0.083c0.334,0.049,0.678,0.095,1.025,0.139c0.136,0.017,0.268,0.036,0.406,0.053
			c0.479,0.057,0.969,0.107,1.47,0.154c0.174,0.017,0.355,0.03,0.532,0.045c0.344,0.029,0.689,0.059,1.042,0.083
			c0.217,0.016,0.439,0.029,0.66,0.044c0.325,0.021,0.652,0.039,0.984,0.057c0.233,0.013,0.468,0.023,0.704,0.034
			c0.334,0.015,0.672,0.027,1.012,0.039c0.234,0.009,0.467,0.017,0.704,0.023c0.38,0.011,0.765,0.019,1.151,0.025
			c0.2,0.004,0.396,0.009,0.598,0.012c0.572,0.008,1.149,0.012,1.732,0.012c0.115,0,0.231-0.001,0.347-0.001
			c0.689-0.002,1.386-0.008,2.087-0.019c0.182-0.003,0.364-0.005,0.547-0.009c0.757-0.014,1.52-0.032,2.287-0.057
			c0.198-0.006,0.398-0.013,0.597-0.02c0.702-0.024,1.406-0.052,2.112-0.083c0.118-0.005,0.236-0.009,0.354-0.015
			c0.781-0.036,1.563-0.077,2.344-0.121c0.216-0.013,0.433-0.025,0.649-0.038c0.768-0.045,1.535-0.093,2.298-0.146
			c0.171-0.012,0.341-0.024,0.512-0.036c0.675-0.048,1.346-0.098,2.014-0.149c0.173-0.014,0.347-0.026,0.519-0.04
			c0.761-0.061,1.516-0.125,2.264-0.19c0.19-0.017,0.379-0.034,0.568-0.051c0.771-0.069,1.537-0.141,2.288-0.214l-30.569,9.86
			c-14.702,7.641-20.428,25.752-12.788,40.454l0.69,1.328c0.299,0.575,0.619,1.131,0.949,1.679c0.092,0.152,0.187,0.302,0.281,0.452
			c0.27,0.431,0.549,0.853,0.838,1.265c0.081,0.115,0.159,0.234,0.241,0.349c0.365,0.506,0.743,0.997,1.134,1.475
			c0.088,0.106,0.179,0.209,0.268,0.314c0.32,0.38,0.649,0.75,0.986,1.111c0.119,0.127,0.237,0.254,0.357,0.379
			c0.42,0.435,0.847,0.858,1.29,1.265c0.008,0.007,0.016,0.016,0.024,0.022c0.45,0.412,0.915,0.803,1.387,1.184
			c0.134,0.108,0.271,0.214,0.407,0.32c0.377,0.294,0.762,0.579,1.151,0.854c0.117,0.082,0.231,0.167,0.349,0.247
			c0.493,0.337,0.994,0.659,1.504,0.966c0.118,0.07,0.238,0.135,0.356,0.204c0.413,0.24,0.831,0.47,1.254,0.689
			c0.154,0.08,0.308,0.16,0.463,0.237c0.514,0.256,1.033,0.501,1.561,0.727c0.024,0.01,0.048,0.022,0.072,0.032
			c0.548,0.233,1.105,0.444,1.666,0.645c0.162,0.058,0.325,0.112,0.488,0.167c0.445,0.15,0.893,0.29,1.345,0.419
			c0.139,0.04,0.276,0.083,0.416,0.12c0.571,0.155,1.147,0.294,1.727,0.414c0.131,0.027,0.264,0.05,0.395,0.075
			c0.469,0.091,0.94,0.172,1.414,0.24c0.171,0.025,0.343,0.05,0.515,0.072c0.565,0.072,1.132,0.133,1.702,0.173
			c0.032,0.003,0.063,0.007,0.095,0.009c0.597,0.04,1.197,0.057,1.798,0.062c0.191,0.001,0.384-0.002,0.576-0.004
			c0.346-0.004,0.692-0.014,1.039-0.03c0.204-0.01,0.408-0.02,0.612-0.033c0.363-0.024,0.727-0.059,1.09-0.097
			c0.18-0.019,0.359-0.034,0.539-0.056c0.503-0.062,1.006-0.136,1.508-0.224c0.037-0.007,0.074-0.011,0.111-0.018
			c0.537-0.097,1.073-0.211,1.607-0.338c0.17-0.04,0.339-0.088,0.509-0.131c0.368-0.094,0.735-0.192,1.101-0.301
			c0.198-0.06,0.396-0.122,0.593-0.186c0.342-0.109,0.684-0.226,1.024-0.348c0.197-0.07,0.395-0.143,0.591-0.218
			c0.357-0.137,0.712-0.284,1.067-0.436c0.17-0.073,0.34-0.142,0.509-0.218c0.519-0.233,1.035-0.479,1.545-0.744l25.556-13.279
			c-3.766-14.135-6.146-28.832-7.028-43.852l-0.012-0.377l-0.388-81.274c0-20.55,2.76-40.611,8.059-59.629L30.674,163.027z"/>
	</g>
	<g>
		<ellipse fill="none" cx="227.22" cy="158.833" rx="9.516" ry="23.036"/>
		<ellipse fill="none" cx="265.781" cy="158.833" rx="9.516" ry="23.036"/>
		<path fill="#B56476" d="M209.558,452.456c-24.612-6.223-47.707-18.73-67.699-36.798l2.239,21.386
			c12.281,1.233,37.17,6.572,34.902,29.631c-0.784,7.969-1.413,14.014-1.916,18.611l12.646-1.324
			c6.11-0.64,11.605-3.62,15.474-8.393c3.868-4.773,5.646-10.767,5.007-16.877L209.558,452.456z"/>
		<path fill="#B56476" d="M284.205,458.692c-0.64,6.11,1.139,12.104,5.007,16.877c3.868,4.772,9.363,7.753,15.474,8.393
			l17.404,1.822c0.808,0.084,1.625,0.127,2.431,0.127c11.791,0.001,21.609-8.859,22.84-20.608l5.454-52.103
			c-19.93,18.771-43.107,31.884-67.889,38.604L284.205,458.692z"/>
		<path fill="#B56476" d="M408.573,21.876c-8.003,4.626-21.489,13.349-30.763,24.216c-3.978,4.662-7.175,9.717-8.833,15.013
			c0.326,0.399,0.645,0.804,0.968,1.206c0.402,0.5,0.808,0.997,1.205,1.5c1.048,1.328,2.081,2.667,3.094,4.023
			c3.946,5.287,7.613,10.788,11.013,16.467c8.562-9.382,11.484-20.119,15.263-34.025c1.891-6.963,3.968-14.593,7.039-22.826
			c0.788-2.116,1.645-4.271,2.579-6.467C409.645,21.261,409.121,21.559,408.573,21.876z"/>
		<path fill="#B56476" d="M126.263,57.245c6.065-7.02,12.515-13.437,19.292-19.232c-2.855-3.263-6.09-6.339-9.671-9.145
			c-7.047-5.522-16.896-9.589-26.56-12.07c5.101,8.438,13.741,24.503,16.718,40.711C126.116,57.421,126.188,57.332,126.263,57.245z"
			/>
		<path fill="#B56476" d="M368.742,295.288v15.777v25.836c0,12.85-5.554,24.427-14.386,32.458c-1.792,1.63-3.727,3.103-5.77,4.421
			c-2.3,1.484-4.745,2.76-7.312,3.798c-5.071,2.053-10.605,3.194-16.404,3.194c-7.481,0-14.529-1.887-20.699-5.202
			c-2.325-1.25-4.521-2.709-6.572-4.342c-1.884-1.5-3.647-3.145-5.262-4.929c-0.711-0.786-1.387-1.604-2.041-2.441
			c-10.222,5.065-20.941,9.305-32.067,12.63c-1.201,0.083-2.472,0.208-3.832,0.391c-31.561,4.226-43.081-20.785-46.655-45.897v5.92
			c0,10.206-3.513,19.602-9.38,27.062c-1.508,1.918-3.163,3.714-4.963,5.354c-2.035,1.855-4.247,3.52-6.604,4.97
			c-6.676,4.108-14.527,6.484-22.925,6.484c-4.511,0-8.865-0.687-12.964-1.957c-2.612-0.81-5.117-1.863-7.496-3.123
			c-0.477-0.253-0.946-0.517-1.412-0.786c-2.766,0.509-4.442,0.761-4.508,0.771c-0.964-0.303-1.919-0.623-2.877-0.938
			c-4.428-1.463-8.793-3.058-13.078-4.806c2.641,4.144,5.438,8.169,8.395,12.061c1.607,2.116,3.26,4.193,4.958,6.229
			c0.001,0.001,0.002,0.002,0.003,0.004c1.804,2.163,3.655,4.283,5.561,6.352c0.006,0.007,0.013,0.014,0.02,0.021
			c19.277,20.927,42.479,35.538,67.521,42.902c2.397,0.705,4.81,1.344,7.239,1.914c2.384,0.561,4.782,1.057,7.193,1.486
			C230.171,442.284,238.047,443,246,443c8.797,0,17.502-0.868,26.039-2.555c2.417-0.478,4.82-1.022,7.209-1.632
			c2.435-0.621,4.853-1.312,7.254-2.068c24.096-7.588,46.406-21.925,65.046-42.166c0.654-0.711,1.296-1.434,1.938-2.155
			c1.796-2.018,3.546-4.079,5.248-6.183c1.628-2.01,3.21-4.059,4.75-6.144c12.491-16.911,22.094-36.215,28.432-56.99
			c1.389-4.553,2.626-9.173,3.697-13.856c2.532-11.072,4.17-22.481,4.853-34.104l0.377-6.417v-65.296
			c-2.892,33.584-14.299,64.785-32.101,91.521V295.288z"/>
		<path fill="#B56476" d="M208.735,284.155c-0.031-0.091-0.074-0.083-0.126-0.001L208.735,284.155z"/>
		<path fill="#B56476" d="M207.742,288.306c0.346-2.37,0.672-3.846,0.866-4.151l-0.866-0.008V288.306z"/>
		<path fill="#B56476" d="M323.973,105.974c3.394,0,6.606-0.773,9.474-2.151c2.2-1.058,4.194-2.475,5.911-4.171
			c1.663-1.644,3.061-3.554,4.132-5.659c1.514-2.976,2.372-6.34,2.372-9.908c0-7.271-3.548-13.71-9.004-17.691
			c2.637,3.615,4.197,8.067,4.197,12.884c0,3.588-0.868,6.97-2.398,9.958c-1.096,2.14-2.53,4.075-4.237,5.734
			c-1.693,1.646-3.649,3.024-5.804,4.057c-2.86,1.371-6.064,2.14-9.449,2.14c-4.817,0-9.269-1.56-12.884-4.198
			C310.263,102.426,316.701,105.974,323.973,105.974z"/>
		<path fill="#B56476" d="M178.968,105.974c12.089,0,21.889-9.8,21.889-21.889c0-7.271-3.548-13.71-9.004-17.691
			c2.638,3.615,4.198,8.067,4.198,12.884c0,12.089-9.8,21.889-21.889,21.889c-4.441,0-8.57-1.327-12.021-3.599
			c-0.293-0.193-0.581-0.393-0.863-0.599c0.21,0.288,0.426,0.569,0.649,0.846C165.938,102.79,172.08,105.974,178.968,105.974z"/>
		<path fill="#B56476" d="M318.175,208.994c9.151-8.688,14.536-19.254,14.536-30.661c0-2.356-0.254-4.671-0.697-6.946
			c-2.26,7.916-6.754,15.359-13.26,21.988c-3.4,3.465-7.339,6.711-11.811,9.68c-16.379,10.874-38.022,16.863-60.943,16.863
			s-44.564-5.989-60.943-16.863c-0.781-0.519-1.528-1.055-2.278-1.59c-2.568-1.834-4.951-3.761-7.136-5.773
			c1.832,3.552,4.197,6.938,7.055,10.109c14.096,15.641,39.852,26.117,69.302,26.117
			C279.395,231.917,303.585,222.848,318.175,208.994z"/>
		<path fill="#B56476" d="M182.351,136.032c-6.555,7.058-10.062,15.057-10.062,23.301c0,2.468,0.332,4.911,0.947,7.317
			c0.19,0.745,0.41,1.485,0.658,2.221c2.811,8.347,9.274,16.125,18.906,22.521c14.109,9.368,33.003,14.526,53.2,14.526
			c20.197,0,39.09-5.159,53.2-14.526c13.227-8.781,20.511-20.167,20.511-32.058c0-4.446-1.02-8.821-2.985-13.015
			c-3.293-7.025-9.244-13.545-17.525-19.043c-14.11-9.367-33.003-14.526-53.2-14.526c-20.197,0-39.09,5.159-53.2,14.526
			C188.743,129.968,185.251,132.909,182.351,136.032z M227.22,181.869c-5.255,0-9.516-10.314-9.516-23.037
			c0-12.722,4.26-23.036,9.516-23.036s9.515,10.314,9.515,23.036C236.735,171.555,232.475,181.869,227.22,181.869z M265.781,181.869
			c-5.256,0-9.516-10.314-9.516-23.037c0-12.722,4.26-23.036,9.516-23.036c5.255,0,9.515,10.314,9.515,23.036
			C275.296,171.555,271.036,181.869,265.781,181.869z"/>
	</g>
	<g>
		<path fill="none" d="M306.282,96.97c3.98,5.456,10.419,9.004,17.69,9.004c3.394,0,6.606-0.773,9.474-2.151
			c2.2-1.058,4.194-2.475,5.911-4.171c1.663-1.644,3.061-3.554,4.132-5.659c1.514-2.976,2.372-6.34,2.372-9.908
			c0-7.271-3.548-13.71-9.004-17.691c-1.503-2.059-3.352-3.849-5.468-5.275c-1.951-1.316-4.127-2.321-6.456-2.956
			c-1.838-0.501-3.771-0.773-5.768-0.773c-0.431,0-0.857,0.016-1.281,0.04c-11.492,0.664-20.607,10.19-20.607,21.849
			C297.277,86.549,300.825,92.989,306.282,96.97z"/>
		<path fill="none" d="M156.976,92.827c1.238,1.569,2.685,2.964,4.301,4.143c0.21,0.288,0.426,0.569,0.649,0.846
			c4.013,4.974,10.154,8.158,17.042,8.158c12.089,0,21.889-9.8,21.889-21.889c0-7.271-3.548-13.71-9.004-17.691
			c-3.98-5.456-10.42-9.004-17.691-9.004c-0.864,0-1.715,0.056-2.554,0.153c-2.383,0.277-4.649,0.935-6.736,1.915
			c-2.334,1.096-4.443,2.588-6.239,4.396c-3.931,3.957-6.36,9.407-6.36,15.425c0,2.417,0.397,4.738,1.121,6.912
			C154.201,88.62,155.423,90.859,156.976,92.827z"/>
		<path fill="none" d="M208.608,284.154l0.126,0.001C208.704,284.064,208.661,284.072,208.608,284.154z"/>
		<path fill="none" d="M332.711,178.333c0-2.356-0.254-4.671-0.697-6.946c1.118-3.918,1.697-7.949,1.697-12.054
			c0-11.657-4.625-22.724-13.259-32.243c-3.761-4.146-8.271-8.002-13.509-11.479C290.564,104.737,268.921,98.748,246,98.748
			s-44.564,5.989-60.943,16.863c-2.726,1.81-5.235,3.732-7.568,5.733c-4.054,3.479-7.519,7.223-10.326,11.187
			c-5.804,8.197-8.874,17.304-8.874,26.801c0,1.851,0.136,3.684,0.366,5.501c1.435,11.322,7.286,21.917,16.989,30.857
			c1.832,3.552,4.197,6.938,7.055,10.109c14.096,15.641,39.852,26.117,69.302,26.117c27.395,0,51.585-9.069,66.175-22.923
			C327.326,200.306,332.711,189.74,332.711,178.333z"/>
		<path fill="#E89EAB" d="M144.098,437.044l2.958,28.26c1.23,11.748,11.049,20.607,22.839,20.607c0.805,0,1.623-0.043,2.431-0.127
			l4.758-0.498c0.503-4.598,1.132-10.643,1.916-18.611C181.268,443.616,156.379,438.277,144.098,437.044z"/>
		<path fill="#E89EAB" d="M364.723,56.098c8.664-22.25,27.112-35.774,37.922-42.094c-0.706-0.031-1.447-0.051-2.245-0.051
			c-13.472,0-34.46,5.227-46.821,14.913c-3.134,2.456-6.001,5.119-8.584,7.931C351.925,42.594,358.52,49.035,364.723,56.098z"/>
		<path fill="#E89EAB" d="M126.042,57.508c-2.977-16.208-11.617-32.272-16.718-40.711c-7.288-1.871-14.47-2.843-20.262-2.843
			c-7.549,0-10.897,1.498-11.759,2.216c0.04,0.208,0.14,0.571,0.388,1.111c5.601,12.196,8.603,23.246,11.251,32.995
			c4,14.723,7.039,25.894,16.828,35.664C111.677,75.853,118.445,66.333,126.042,57.508z"/>
		<path fill="#E89EAB" d="M380.931,105.909c-1-2.062-2.032-4.1-3.1-6.111c-0.03-0.057-0.061-0.114-0.091-0.17
			c-1.102-2.071-2.229-4.12-3.398-6.133C364.145,75.941,351.36,60.59,336.639,48.17c-1.807-1.524-3.644-3.004-5.508-4.438
			c-1.862-1.433-3.751-2.823-5.668-4.164C302.217,23.314,275.031,13.954,246,13.954c-29.781,0-57.619,9.851-81.254,26.889
			c-1.906,1.374-3.788,2.79-5.638,4.256c-1.854,1.47-3.682,2.983-5.478,4.543c-14.321,12.436-26.735,27.688-36.645,45.041
			c-1.155,2.022-2.283,4.066-3.368,6.144c-0.777,1.486-1.529,2.991-2.27,4.505c-0.29,0.593-0.575,1.191-0.859,1.789
			c-2.826,5.936-5.373,12.075-7.62,18.395c-7.54,21.204-11.711,44.428-11.711,68.769l0.387,81.051
			c0.771,12.943,2.726,25.623,5.784,37.864c1.16,4.641,2.485,9.215,3.959,13.72c5.01,15.31,11.808,29.774,20.247,43.017
			c4.285,1.748,8.65,3.343,13.078,4.806c0.958,0.315,1.913,0.636,2.877,0.938c0.066-0.011,1.742-0.263,4.508-0.771
			c-1.628-0.94-3.192-1.978-4.68-3.113C126.803,363.771,120,351.118,120,336.901v-19.708v-15.777V271.87c0-3.866,3.134-7,7-7
			s7,3.134,7,7v22.271v15.777v26.982c0,11.612,6.665,21.69,16.366,26.631c4.059,2.066,8.646,3.24,13.504,3.24
			c7.423,0,14.217-2.728,19.448-7.226c6.375-5.482,10.424-13.598,10.424-22.646V271.87c0-3.866,3.134-7,7-7s7,3.134,7,7v12.276
			l0.866,0.008c0.052-0.082,0.096-0.09,0.126,0.001l-0.126-0.001c-0.194,0.306-0.52,1.781-0.866,4.151v42.676
			c3.574,25.112,15.095,50.123,46.655,45.897c1.36-0.183,2.631-0.308,3.832-0.391c11.126-3.325,21.846-7.564,32.067-12.63
			c-5.817-7.444-9.297-16.799-9.297-26.957V271.87c0-3.866,3.134-7,7-7s7,3.134,7,7v65.031c0,7.769,2.982,14.852,7.86,20.17
			c1.042,1.136,2.172,2.187,3.376,3.15c5.113,4.094,11.591,6.551,18.635,6.551c5.685,0,11.003-1.598,15.531-4.365
			c8.592-5.252,14.34-14.72,14.34-25.506v-23.364v-9.746v-15.777V271.87c0-3.866,3.134-7,7-7s7,3.134,7,7v23.084
			c17.802-26.736,29.209-57.937,32.101-91.521v-9.151c0-26.458-4.919-51.603-13.747-74.261
			C385.217,115.199,383.154,110.495,380.931,105.909z M317.885,57.43c0.424-0.024,0.851-0.04,1.281-0.04
			c1.997,0,3.93,0.272,5.768,0.773c2.329,0.635,4.505,1.64,6.456,2.956c2.116,1.427,3.965,3.216,5.468,5.275
			c5.456,3.981,9.004,10.42,9.004,17.691c0,3.567-0.858,6.932-2.372,9.908c-1.071,2.105-2.469,4.015-4.132,5.659
			c-1.717,1.697-3.711,3.113-5.911,4.171c-2.867,1.378-6.08,2.151-9.474,2.151c-7.271,0-13.71-3.548-17.69-9.004
			c-5.457-3.981-9.005-10.42-9.005-17.691C297.277,67.62,306.393,58.094,317.885,57.43z M158.633,63.854
			c1.795-1.807,3.905-3.3,6.239-4.396c2.086-0.98,4.353-1.638,6.736-1.915c0.838-0.098,1.689-0.153,2.554-0.153
			c7.271,0,13.71,3.548,17.691,9.004c5.456,3.981,9.004,10.42,9.004,17.691c0,12.089-9.8,21.889-21.889,21.889
			c-6.888,0-13.029-3.185-17.042-8.158c-0.223-0.277-0.439-0.559-0.649-0.846c-1.616-1.179-3.062-2.574-4.301-4.143
			c-1.553-1.967-2.775-4.207-3.583-6.636c-0.723-2.174-1.121-4.496-1.121-6.912C152.272,73.26,154.702,67.811,158.633,63.854z
			 M252,231.917c-29.45,0-55.206-10.476-69.302-26.117c-2.858-3.171-5.224-6.558-7.055-10.109
			c-9.703-8.94-15.554-19.535-16.989-30.857c-0.23-1.817-0.366-3.65-0.366-5.501c0-9.498,3.07-18.604,8.874-26.801
			c2.807-3.964,6.272-7.708,10.326-11.187c2.333-2.001,4.842-3.923,7.568-5.733c16.379-10.875,38.022-16.863,60.943-16.863
			s44.564,5.989,60.943,16.863c5.237,3.477,9.748,7.333,13.509,11.479c8.634,9.519,13.259,20.585,13.259,32.243
			c0,4.105-0.579,8.136-1.697,12.054c0.443,2.275,0.697,4.59,0.697,6.946c0,11.407-5.385,21.973-14.536,30.661
			C303.585,222.848,279.395,231.917,252,231.917z"/>
		<path fill="none" stroke="#E57A87" stroke-width="0" stroke-linecap="round" stroke-linejoin="round" d="M158.37,118.861
			c-0.449-0.411-0.913-0.801-1.384-1.182"/>
		<path fill="none" stroke="#E57A87" stroke-width="0" stroke-linecap="round" stroke-linejoin="round" d="M354.587,112.049"/>
		<path fill="none" stroke="#E57A87" stroke-width="0" stroke-linecap="round" stroke-linejoin="round" d="M356.713,111.56"/>
		<path fill="none" stroke="#E57A87" stroke-width="0" stroke-linecap="round" stroke-linejoin="round" d="M134.458,111.226
			c-0.522,0.064-1.045,0.14-1.566,0.232"/>
	</g>
	<g>
		<path fill="none" d="M126.042,57.508c0.075-0.087,0.147-0.176,0.222-0.263c6.065-7.02,12.515-13.437,19.292-19.232
			c-2.855-3.263-6.09-6.339-9.671-9.145c-7.047-5.522-16.896-9.589-26.56-12.07c-7.288-1.871-14.47-2.843-20.262-2.843
			c-7.549,0-10.897,1.498-11.759,2.216c0.04,0.208,0.14,0.571,0.388,1.111c5.601,12.196,8.603,23.246,11.251,32.995
			c4,14.723,7.039,25.894,16.828,35.664C111.677,75.853,118.445,66.333,126.042,57.508z"/>
		<path fill="none" d="M30.674,163.027c-14.702,7.64-20.428,25.751-12.788,40.453l0.69,1.329c0.113,0.218,0.25,0.428,0.398,0.634
			c0.041,0.058,0.085,0.114,0.128,0.17c0.128,0.165,0.267,0.326,0.416,0.484c0.038,0.04,0.072,0.081,0.112,0.121
			c0.189,0.189,0.394,0.374,0.613,0.552c0.053,0.043,0.11,0.085,0.165,0.127c0.181,0.141,0.372,0.279,0.571,0.414
			c0.068,0.046,0.134,0.092,0.204,0.137c0.257,0.165,0.524,0.326,0.807,0.481c0.035,0.019,0.072,0.036,0.107,0.055
			c0.256,0.138,0.524,0.271,0.801,0.4c0.089,0.042,0.179,0.083,0.27,0.123c0.271,0.122,0.55,0.24,0.838,0.355
			c0.054,0.021,0.104,0.043,0.159,0.065c0.34,0.132,0.692,0.259,1.054,0.381c0.095,0.032,0.193,0.063,0.29,0.095
			c0.292,0.096,0.589,0.188,0.894,0.278c0.098,0.029,0.193,0.058,0.292,0.086c0.386,0.11,0.781,0.217,1.185,0.319
			c0.073,0.018,0.148,0.035,0.221,0.053c0.346,0.085,0.697,0.167,1.055,0.245c0.117,0.025,0.234,0.051,0.352,0.076
			c0.397,0.084,0.799,0.166,1.209,0.243c0.035,0.007,0.068,0.014,0.103,0.021c0.443,0.083,0.896,0.16,1.352,0.234
			c0.121,0.02,0.243,0.039,0.365,0.058c0.374,0.059,0.751,0.115,1.133,0.168c0.1,0.014,0.198,0.029,0.298,0.042
			c0.468,0.063,0.941,0.124,1.419,0.18c0.102,0.012,0.204,0.023,0.306,0.035c0.395,0.045,0.792,0.087,1.191,0.127
			c0.126,0.012,0.251,0.025,0.378,0.037c0.491,0.047,0.983,0.092,1.479,0.131c0.015,0.001,0.029,0.002,0.043,0.003
			c0.483,0.039,0.969,0.073,1.456,0.105c0.13,0.008,0.26,0.017,0.39,0.024c0.423,0.026,0.847,0.05,1.271,0.072
			c0.085,0.004,0.17,0.009,0.256,0.014c0.5,0.024,1,0.045,1.5,0.062c0.113,0.004,0.226,0.007,0.339,0.011
			c0.411,0.014,0.82,0.025,1.229,0.035c0.117,0.002,0.233,0.005,0.35,0.008c0.5,0.01,0.998,0.018,1.494,0.022
			c0.058,0,0.115,0,0.173,0.001c0.308,0.002,0.616,0.004,0.921,0.004c0.091,0,0.18-0.002,0.271-0.002
			c0.386-0.001,0.769-0.004,1.15-0.008c0.21-0.002,0.42-0.003,0.629-0.007c0.496-0.008,0.987-0.019,1.474-0.032
			c0.086-0.002,0.175-0.003,0.261-0.006c0.565-0.017,1.12-0.037,1.668-0.061c0.191-0.008,0.376-0.018,0.565-0.027
			c0.36-0.017,0.718-0.035,1.069-0.054c0.214-0.012,0.422-0.025,0.633-0.039c0.319-0.02,0.635-0.041,0.946-0.063
			c0.209-0.015,0.416-0.03,0.622-0.046c0.304-0.023,0.602-0.048,0.896-0.074c0.194-0.017,0.388-0.034,0.577-0.051
			c0.314-0.03,0.618-0.061,0.919-0.093c0.151-0.016,0.306-0.031,0.453-0.047c0.443-0.049,0.873-0.101,1.282-0.155l-30.903,12.203
			c-14.702,7.64-20.428,25.751-12.788,40.454l0.69,1.328c0.103,0.198,0.234,0.387,0.383,0.569c0.049,0.06,0.108,0.115,0.161,0.173
			c0.111,0.121,0.228,0.24,0.359,0.354c0.073,0.063,0.151,0.124,0.23,0.186c0.133,0.104,0.274,0.204,0.425,0.302
			c0.09,0.059,0.181,0.117,0.276,0.174c0.166,0.098,0.343,0.191,0.525,0.282c0.096,0.049,0.188,0.099,0.289,0.146
			c0.242,0.111,0.499,0.219,0.767,0.321c0.054,0.021,0.101,0.043,0.156,0.063c0.324,0.12,0.667,0.233,1.025,0.341
			c0.121,0.036,0.25,0.069,0.374,0.104c0.249,0.07,0.501,0.139,0.765,0.203c0.157,0.038,0.318,0.074,0.48,0.111
			c0.249,0.056,0.502,0.11,0.762,0.162c0.172,0.034,0.346,0.067,0.523,0.1c0.272,0.05,0.552,0.097,0.835,0.143
			c0.174,0.027,0.345,0.057,0.522,0.083c0.334,0.049,0.678,0.095,1.025,0.139c0.136,0.017,0.268,0.036,0.406,0.053
			c0.479,0.057,0.969,0.107,1.47,0.154c0.174,0.017,0.355,0.03,0.532,0.045c0.344,0.029,0.689,0.059,1.042,0.083
			c0.217,0.016,0.439,0.029,0.66,0.044c0.325,0.021,0.652,0.039,0.984,0.057c0.233,0.012,0.468,0.023,0.704,0.034
			c0.334,0.015,0.672,0.027,1.012,0.039c0.234,0.009,0.467,0.017,0.704,0.023c0.38,0.011,0.765,0.019,1.151,0.025
			c0.2,0.004,0.396,0.009,0.598,0.012c0.572,0.008,1.149,0.012,1.732,0.012c0.031,0,0.062,0.001,0.092,0.001
			c0.083,0,0.17-0.002,0.254-0.002c0.689-0.002,1.386-0.008,2.087-0.019c0.183-0.003,0.364-0.005,0.547-0.009
			c0.757-0.014,1.52-0.032,2.287-0.057c0.199-0.006,0.397-0.013,0.597-0.02c0.702-0.024,1.406-0.052,2.112-0.083
			c0.118-0.005,0.235-0.009,0.354-0.015c0.781-0.036,1.563-0.077,2.344-0.121c0.217-0.013,0.433-0.025,0.649-0.038
			c0.768-0.045,1.534-0.093,2.298-0.146c0.171-0.012,0.341-0.024,0.512-0.036c0.675-0.048,1.346-0.098,2.014-0.149
			c0.173-0.014,0.346-0.026,0.519-0.04c0.762-0.061,1.516-0.125,2.264-0.19c0.19-0.017,0.379-0.034,0.568-0.051
			c0.771-0.069,1.537-0.141,2.288-0.214l-30.569,9.86c-14.702,7.641-20.428,25.752-12.788,40.454l0.69,1.328
			c0.299,0.575,0.619,1.131,0.949,1.679c0.092,0.152,0.187,0.302,0.281,0.452c0.27,0.431,0.549,0.852,0.838,1.265
			c0.081,0.116,0.159,0.234,0.241,0.349c0.365,0.506,0.743,0.997,1.134,1.475c0.088,0.106,0.179,0.209,0.268,0.314
			c0.32,0.38,0.649,0.75,0.986,1.111c0.119,0.127,0.237,0.254,0.357,0.379c0.42,0.435,0.847,0.859,1.29,1.265
			c0.008,0.007,0.016,0.016,0.024,0.022c0.45,0.411,0.915,0.803,1.387,1.184c0.134,0.108,0.271,0.214,0.407,0.32
			c0.377,0.294,0.762,0.579,1.151,0.854c0.117,0.082,0.231,0.167,0.349,0.247c0.493,0.337,0.994,0.659,1.504,0.966
			c0.118,0.07,0.238,0.135,0.356,0.204c0.413,0.24,0.831,0.47,1.254,0.689c0.154,0.08,0.308,0.16,0.463,0.237
			c0.514,0.256,1.033,0.501,1.561,0.727c0.024,0.011,0.048,0.022,0.072,0.032c0.548,0.233,1.105,0.444,1.666,0.645
			c0.162,0.058,0.325,0.112,0.488,0.167c0.445,0.15,0.893,0.29,1.345,0.419c0.139,0.04,0.276,0.083,0.416,0.12
			c0.571,0.155,1.146,0.294,1.727,0.414c0.131,0.027,0.264,0.05,0.395,0.075c0.469,0.091,0.94,0.172,1.414,0.24
			c0.171,0.025,0.343,0.05,0.515,0.072c0.565,0.072,1.132,0.133,1.702,0.173c0.032,0.003,0.063,0.007,0.095,0.009
			c0.597,0.04,1.197,0.057,1.798,0.062c0.071,0,0.142,0.007,0.213,0.007c0.121,0,0.242-0.009,0.362-0.011
			c0.346-0.004,0.692-0.014,1.039-0.03c0.204-0.01,0.408-0.02,0.612-0.033c0.364-0.024,0.727-0.059,1.09-0.097
			c0.18-0.019,0.359-0.034,0.539-0.056c0.503-0.062,1.006-0.136,1.508-0.224c0.037-0.007,0.074-0.011,0.111-0.018
			c0.537-0.097,1.073-0.211,1.607-0.338c0.17-0.04,0.339-0.088,0.509-0.131c0.368-0.094,0.735-0.192,1.101-0.301
			c0.198-0.06,0.395-0.122,0.593-0.186c0.342-0.109,0.684-0.225,1.024-0.348c0.197-0.071,0.394-0.142,0.591-0.218
			c0.357-0.137,0.712-0.284,1.067-0.436c0.17-0.073,0.34-0.142,0.509-0.218c0.519-0.233,1.034-0.479,1.545-0.744l25.556-13.279
			c-3.766-14.135-6.146-28.832-7.028-43.852l-0.012-0.377l-0.388-81.274c0-20.55,2.76-40.611,8.059-59.629L30.674,163.027z"/>
		<path fill="none" d="M364.723,56.098c8.664-22.25,27.112-35.774,37.922-42.094c-0.706-0.031-1.447-0.051-2.245-0.051
			c-13.472,0-34.46,5.227-46.821,14.913c-3.134,2.456-6.001,5.119-8.584,7.931C351.925,42.594,358.52,49.035,364.723,56.098z"/>
		<path fill="none" d="M209.558,452.456c-24.612-6.223-47.707-18.73-67.699-36.798l2.239,21.386l2.958,28.26
			c1.23,11.748,11.049,20.607,22.839,20.607c0.805,0,1.623-0.043,2.431-0.127l4.758-0.498l12.646-1.324
			c6.11-0.64,11.605-3.62,15.474-8.393c3.868-4.773,5.646-10.767,5.007-16.877L209.558,452.456z"/>
		<path fill="none" d="M284.205,458.692c-0.64,6.11,1.139,12.104,5.007,16.877c3.868,4.772,9.363,7.753,15.474,8.393l17.404,1.822
			c0.808,0.084,1.625,0.127,2.431,0.127c11.791,0.001,21.609-8.859,22.84-20.608l5.454-52.103
			c-19.93,18.771-43.107,31.884-67.889,38.604L284.205,458.692z"/>
		<path fill="none" d="M377.811,46.092c-3.978,4.662-7.175,9.717-8.833,15.013c0.326,0.399,0.645,0.804,0.968,1.206
			c0.402,0.5,0.808,0.997,1.205,1.5c1.048,1.328,2.081,2.667,3.094,4.023c3.946,5.287,7.613,10.788,11.013,16.467
			c8.562-9.382,11.484-20.119,15.263-34.025c1.891-6.963,3.968-14.593,7.039-22.826c0.788-2.116,1.645-4.271,2.579-6.467
			c-0.493,0.278-1.017,0.576-1.564,0.893C400.57,26.502,387.084,35.225,377.811,46.092z"/>
		<path fill="none" d="M440.693,211.536c0.301,0.032,0.604,0.063,0.919,0.093c0.189,0.018,0.383,0.034,0.576,0.051
			c0.295,0.025,0.593,0.05,0.896,0.074c0.205,0.016,0.412,0.032,0.622,0.046c0.311,0.022,0.627,0.043,0.946,0.063
			c0.21,0.013,0.418,0.026,0.632,0.039c0.352,0.02,0.711,0.037,1.071,0.055c0.188,0.009,0.372,0.019,0.562,0.027
			c0.549,0.023,1.104,0.044,1.67,0.061c0.084,0.002,0.171,0.003,0.256,0.006c0.488,0.013,0.98,0.024,1.479,0.032
			c0.208,0.003,0.418,0.004,0.628,0.007c0.382,0.004,0.765,0.007,1.151,0.008c0.091,0,0.181,0.002,0.271,0.002
			c0.306,0,0.613-0.002,0.922-0.004c0.058,0,0.114,0,0.172-0.001c0.496-0.004,0.995-0.012,1.495-0.022
			c0.115-0.002,0.23-0.005,0.347-0.008c0.41-0.009,0.821-0.021,1.233-0.035c0.112-0.003,0.224-0.007,0.335-0.011
			c0.501-0.018,1.002-0.039,1.503-0.062c0.083-0.004,0.167-0.009,0.25-0.013c0.427-0.022,0.853-0.046,1.277-0.072
			c0.129-0.008,0.257-0.016,0.385-0.024c0.49-0.032,0.98-0.067,1.467-0.105c0.011-0.001,0.022-0.002,0.033-0.002
			c0.497-0.04,0.991-0.084,1.483-0.132c0.125-0.012,0.249-0.024,0.373-0.037c0.402-0.04,0.802-0.083,1.198-0.128
			c0.1-0.012,0.2-0.022,0.3-0.034c0.479-0.056,0.953-0.117,1.423-0.181c0.098-0.013,0.193-0.028,0.291-0.042
			c0.384-0.054,0.765-0.11,1.142-0.17c0.12-0.019,0.239-0.037,0.358-0.057c0.458-0.075,0.911-0.152,1.356-0.235
			c0.03-0.006,0.061-0.012,0.091-0.018c0.414-0.078,0.82-0.16,1.223-0.246c0.115-0.024,0.23-0.05,0.345-0.075
			c0.361-0.079,0.716-0.162,1.065-0.248c0.07-0.017,0.143-0.033,0.212-0.051c0.405-0.102,0.802-0.209,1.189-0.32
			c0.096-0.027,0.189-0.056,0.284-0.084c0.308-0.091,0.608-0.185,0.903-0.281c0.094-0.031,0.189-0.062,0.282-0.093
			c0.363-0.123,0.718-0.25,1.059-0.383c0.051-0.02,0.1-0.041,0.15-0.061c0.291-0.116,0.573-0.236,0.848-0.359
			c0.089-0.04,0.177-0.08,0.264-0.121c0.28-0.131,0.551-0.265,0.811-0.404c0.032-0.018,0.067-0.034,0.1-0.051
			c0.284-0.155,0.552-0.317,0.81-0.483c0.068-0.044,0.134-0.089,0.201-0.134c0.201-0.135,0.393-0.274,0.575-0.417
			c0.054-0.042,0.109-0.083,0.162-0.125c0.22-0.179,0.425-0.363,0.614-0.553c0.038-0.039,0.072-0.08,0.109-0.119
			c0.15-0.158,0.289-0.32,0.418-0.486c0.043-0.056,0.087-0.112,0.128-0.169c0.147-0.206,0.285-0.417,0.398-0.634l0.69-1.329
			c7.64-14.702,1.914-32.813-12.788-40.453l-64.599-33.566c6.296,20.547,9.58,42.396,9.58,64.821l-0.687,86.843l-0.198,1.432
			c-1.003,11.358-2.868,22.509-5.54,33.348l33.088,17.193c0.512,0.266,1.028,0.512,1.547,0.745c0.167,0.075,0.335,0.143,0.503,0.215
			c0.357,0.152,0.715,0.301,1.075,0.438c0.193,0.075,0.389,0.146,0.584,0.216c0.343,0.123,0.687,0.24,1.032,0.351
			c0.194,0.062,0.39,0.124,0.585,0.183c0.369,0.109,0.739,0.209,1.11,0.304c0.167,0.042,0.333,0.089,0.501,0.129
			c0.535,0.127,1.072,0.241,1.61,0.338c0.034,0.006,0.067,0.01,0.102,0.016c0.506,0.089,1.011,0.163,1.518,0.226
			c0.179,0.021,0.357,0.037,0.536,0.056c0.364,0.038,0.729,0.072,1.092,0.097c0.204,0.014,0.408,0.023,0.612,0.033
			c0.346,0.017,0.692,0.026,1.038,0.03c0.121,0.002,0.242,0.011,0.362,0.011c0.071,0,0.143-0.007,0.214-0.007
			c0.601-0.005,1.2-0.021,1.798-0.062c0.032-0.002,0.063-0.006,0.095-0.009c0.57-0.04,1.138-0.101,1.703-0.173
			c0.172-0.022,0.344-0.047,0.515-0.072c0.474-0.068,0.945-0.149,1.414-0.24c0.132-0.025,0.264-0.048,0.396-0.075
			c0.579-0.12,1.154-0.259,1.726-0.414c0.14-0.037,0.278-0.08,0.417-0.12c0.451-0.13,0.898-0.269,1.343-0.419
			c0.163-0.055,0.327-0.109,0.49-0.168c0.56-0.199,1.116-0.41,1.664-0.643c0.025-0.012,0.051-0.024,0.077-0.035
			c0.525-0.226,1.042-0.469,1.555-0.724c0.156-0.078,0.312-0.159,0.467-0.239c0.421-0.219,0.837-0.447,1.248-0.687
			c0.12-0.069,0.241-0.136,0.361-0.208c0.509-0.305,1.01-0.626,1.501-0.962c0.12-0.082,0.236-0.169,0.354-0.253
			c0.388-0.273,0.769-0.556,1.144-0.848c0.139-0.108,0.276-0.215,0.413-0.325c0.47-0.38,0.934-0.77,1.382-1.18
			c0.013-0.012,0.024-0.024,0.038-0.036c0.437-0.401,0.859-0.821,1.275-1.251c0.122-0.126,0.242-0.256,0.362-0.385
			c0.334-0.358,0.66-0.726,0.979-1.103c0.091-0.107,0.185-0.212,0.274-0.321c0.391-0.477,0.768-0.967,1.131-1.471
			c0.084-0.116,0.163-0.237,0.246-0.354c0.287-0.41,0.564-0.83,0.833-1.258c0.096-0.152,0.19-0.304,0.284-0.458
			c0.329-0.546,0.648-1.102,0.947-1.676l0.69-1.328c7.64-14.702,1.914-32.813-12.788-40.454l-30.569-9.86
			c0.75,0.073,1.514,0.145,2.284,0.214c0.191,0.017,0.382,0.034,0.575,0.051c0.745,0.066,1.498,0.13,2.257,0.19
			c0.176,0.014,0.352,0.026,0.527,0.04c0.665,0.052,1.333,0.102,2.005,0.148c0.173,0.013,0.345,0.025,0.519,0.037
			c0.762,0.053,1.527,0.101,2.294,0.146c0.218,0.013,0.435,0.025,0.652,0.038c0.781,0.044,1.562,0.085,2.342,0.121
			c0.119,0.006,0.237,0.01,0.356,0.015c0.705,0.031,1.409,0.059,2.11,0.083c0.199,0.007,0.398,0.014,0.598,0.02
			c0.767,0.024,1.529,0.043,2.286,0.057c0.184,0.004,0.365,0.006,0.548,0.009c0.702,0.011,1.398,0.017,2.088,0.019
			c0.084,0,0.17,0.002,0.254,0.002c0.031,0,0.062-0.001,0.092-0.001c0.583,0,1.161-0.004,1.732-0.012
			c0.201-0.003,0.398-0.008,0.599-0.012c0.386-0.007,0.771-0.015,1.151-0.025c0.236-0.007,0.469-0.015,0.703-0.023
			c0.34-0.012,0.678-0.024,1.012-0.039c0.236-0.011,0.471-0.022,0.704-0.034c0.332-0.018,0.659-0.036,0.984-0.057
			c0.221-0.015,0.442-0.028,0.66-0.044c0.353-0.024,0.698-0.054,1.042-0.083c0.177-0.015,0.357-0.028,0.531-0.045
			c0.501-0.047,0.992-0.098,1.471-0.154c0.138-0.017,0.27-0.036,0.405-0.053c0.348-0.044,0.691-0.09,1.025-0.139
			c0.178-0.026,0.349-0.056,0.522-0.083c0.283-0.046,0.562-0.093,0.835-0.143c0.178-0.032,0.351-0.065,0.523-0.1
			c0.26-0.052,0.514-0.106,0.763-0.162c0.161-0.037,0.323-0.073,0.479-0.111c0.264-0.064,0.516-0.133,0.765-0.203
			c0.124-0.034,0.254-0.067,0.374-0.104c0.357-0.107,0.701-0.221,1.025-0.341c0.055-0.021,0.103-0.043,0.156-0.063
			c0.268-0.103,0.524-0.21,0.767-0.321c0.101-0.047,0.192-0.097,0.289-0.146c0.183-0.091,0.359-0.185,0.525-0.282
			c0.096-0.057,0.186-0.115,0.275-0.174c0.15-0.098,0.292-0.198,0.426-0.302c0.078-0.062,0.157-0.122,0.229-0.186
			c0.132-0.114,0.249-0.233,0.359-0.354c0.054-0.058,0.113-0.113,0.161-0.173c0.149-0.183,0.281-0.371,0.384-0.569l0.69-1.328
			c7.64-14.703,1.914-32.814-12.788-40.454l-30.903-12.203c0.409,0.054,0.839,0.105,1.282,0.155
			C440.388,211.505,440.543,211.52,440.693,211.536z"/>
		<path fill="none" d="M380.931,105.909c-1-2.062-2.032-4.1-3.1-6.111c-0.03-0.057-0.061-0.114-0.091-0.17
			c-1.102-2.071-2.229-4.12-3.398-6.133C364.145,75.941,351.36,60.59,336.639,48.17c-1.807-1.524-3.644-3.004-5.508-4.438
			c-1.862-1.433-3.751-2.823-5.668-4.164C302.217,23.314,275.031,13.954,246,13.954c-29.781,0-57.619,9.851-81.254,26.889
			c-1.906,1.374-3.788,2.79-5.638,4.256c-1.854,1.47-3.682,2.983-5.478,4.543c-14.321,12.436-26.735,27.688-36.645,45.041
			c-1.155,2.022-2.283,4.066-3.368,6.144c-0.777,1.486-1.529,2.991-2.27,4.505c-0.29,0.593-0.575,1.191-0.859,1.789
			c-2.826,5.936-5.373,12.075-7.62,18.395c-7.54,21.204-11.711,44.428-11.711,68.769l0.387,81.051
			c0.771,12.943,2.726,25.623,5.784,37.864c1.16,4.641,2.485,9.215,3.959,13.72c5.01,15.31,11.808,29.774,20.247,43.017
			c2.641,4.144,5.438,8.169,8.395,12.061c1.607,2.116,3.26,4.193,4.958,6.229c0.001,0.001,0.002,0.002,0.003,0.004
			c1.804,2.163,3.655,4.283,5.561,6.352c0.006,0.007,0.013,0.014,0.02,0.021c19.277,20.927,42.479,35.538,67.521,42.902
			c2.397,0.705,4.81,1.344,7.239,1.914c2.384,0.561,4.782,1.057,7.193,1.486C230.171,442.284,238.047,443,246,443
			c8.797,0,17.502-0.868,26.039-2.555c2.417-0.478,4.82-1.022,7.209-1.632c2.435-0.621,4.853-1.312,7.254-2.068
			c24.096-7.588,46.406-21.925,65.046-42.166c0.654-0.711,1.296-1.434,1.938-2.155c1.796-2.018,3.546-4.079,5.248-6.183
			c1.628-2.01,3.21-4.059,4.75-6.144c12.491-16.911,22.094-36.215,28.432-56.99c1.389-4.553,2.626-9.173,3.697-13.856
			c2.532-11.072,4.17-22.481,4.853-34.104l0.377-6.417v-65.296v-9.151c0-26.458-4.919-51.603-13.747-74.261
			C385.217,115.199,383.154,110.495,380.931,105.909z M317.885,57.43c0.424-0.024,0.851-0.04,1.281-0.04
			c1.997,0,3.93,0.272,5.768,0.773c2.329,0.635,4.505,1.64,6.456,2.956c2.116,1.427,3.965,3.216,5.468,5.275
			c2.637,3.615,4.197,8.067,4.197,12.884c0,3.588-0.868,6.97-2.398,9.958c-1.096,2.14-2.53,4.075-4.237,5.734
			c-1.693,1.646-3.649,3.024-5.804,4.057c-2.86,1.371-6.064,2.14-9.449,2.14c-4.817,0-9.269-1.56-12.884-4.198
			c-5.457-3.981-9.005-10.42-9.005-17.691C297.277,67.62,306.393,58.094,317.885,57.43z M158.633,63.854
			c1.795-1.807,3.905-3.3,6.239-4.396c2.086-0.98,4.353-1.638,6.736-1.915c0.838-0.098,1.689-0.153,2.554-0.153
			c7.271,0,13.71,3.548,17.691,9.004c2.638,3.615,4.198,8.067,4.198,12.884c0,12.089-9.8,21.889-21.889,21.889
			c-4.441,0-8.57-1.327-12.021-3.599c-0.293-0.193-0.581-0.393-0.863-0.599c-1.616-1.179-3.062-2.574-4.301-4.143
			c-1.553-1.967-2.775-4.207-3.583-6.636c-0.723-2.174-1.121-4.496-1.121-6.912C152.272,73.26,154.702,67.811,158.633,63.854z
			 M207.742,284.146v4.159v42.676v5.92c0,10.206-3.513,19.602-9.38,27.062c-1.508,1.918-3.163,3.714-4.963,5.354
			c-2.035,1.855-4.247,3.52-6.604,4.97c-6.676,4.108-14.527,6.484-22.925,6.484c-4.511,0-8.865-0.687-12.964-1.957
			c-2.612-0.81-5.117-1.863-7.496-3.123c-0.477-0.253-0.946-0.517-1.412-0.786c-1.628-0.94-3.192-1.978-4.68-3.113
			C126.803,363.771,120,351.118,120,336.901v-19.708v-15.777V271.87c0-3.866,3.134-7,7-7s7,3.134,7,7v22.271v15.777v26.982
			c0,11.612,6.665,21.69,16.366,26.631c4.059,2.066,8.646,3.24,13.504,3.24c7.423,0,14.217-2.728,19.448-7.226
			c6.375-5.482,10.424-13.598,10.424-22.646V271.87c0-3.866,3.134-7,7-7s7,3.134,7,7V284.146z M246,219.917
			c-22.921,0-44.564-5.989-60.943-16.863c-0.781-0.519-1.528-1.055-2.278-1.59c-2.568-1.834-4.951-3.761-7.136-5.773
			c-9.703-8.94-15.554-19.535-16.989-30.857c-0.23-1.817-0.366-3.65-0.366-5.501c0-9.498,3.07-18.604,8.874-26.801
			c2.807-3.964,6.272-7.708,10.326-11.187c2.333-2.001,4.842-3.923,7.568-5.733c16.379-10.875,38.022-16.863,60.943-16.863
			s44.564,5.989,60.943,16.863c5.237,3.477,9.748,7.333,13.509,11.479c8.634,9.519,13.259,20.585,13.259,32.243
			c0,4.105-0.579,8.136-1.697,12.054c-2.26,7.916-6.754,15.359-13.26,21.988c-3.4,3.465-7.339,6.711-11.811,9.68
			C290.564,213.929,268.921,219.917,246,219.917z M368.742,294.954v0.334v15.777v25.836c0,12.85-5.554,24.427-14.386,32.458
			c-1.792,1.63-3.727,3.103-5.77,4.421c-2.3,1.484-4.745,2.76-7.312,3.798c-5.071,2.053-10.605,3.194-16.404,3.194
			c-7.481,0-14.529-1.887-20.699-5.202c-2.325-1.25-4.521-2.709-6.572-4.342c-1.884-1.5-3.647-3.145-5.262-4.929
			c-0.711-0.786-1.387-1.604-2.041-2.441c-5.817-7.444-9.297-16.799-9.297-26.957V271.87c0-3.866,3.134-7,7-7s7,3.134,7,7v65.031
			c0,7.769,2.982,14.852,7.86,20.17c1.042,1.136,2.172,2.187,3.376,3.15c5.113,4.094,11.591,6.551,18.635,6.551
			c5.685,0,11.003-1.598,15.531-4.365c8.592-5.252,14.34-14.72,14.34-25.506v-23.364v-9.746v-15.777V271.87c0-3.866,3.134-7,7-7
			s7,3.134,7,7V294.954z"/>
		<path fill="none" d="M319.711,159.333c0-4.446-1.02-8.821-2.985-13.015c-3.293-7.025-9.244-13.545-17.525-19.043
			c-14.11-9.367-33.003-14.526-53.2-14.526c-20.197,0-39.09,5.159-53.2,14.526c-4.057,2.694-7.549,5.634-10.45,8.758
			c-6.555,7.058-10.062,15.057-10.062,23.301c0,2.468,0.332,4.911,0.947,7.317c0.19,0.745,0.41,1.485,0.658,2.221
			c2.811,8.347,9.274,16.125,18.906,22.521c14.109,9.368,33.003,14.526,53.2,14.526c20.197,0,39.09-5.159,53.2-14.526
			C312.427,182.61,319.711,171.225,319.711,159.333z M227.22,181.869c-5.255,0-9.516-10.314-9.516-23.037
			c0-12.722,4.26-23.036,9.516-23.036s9.515,10.314,9.515,23.036C236.735,171.555,232.475,181.869,227.22,181.869z M265.781,181.869
			c-5.256,0-9.516-10.314-9.516-23.037c0-12.722,4.26-23.036,9.516-23.036c5.255,0,9.515,10.314,9.515,23.036
			C275.296,171.555,271.036,181.869,265.781,181.869z"/>
		<path fill="#333333" d="M490.021,277.211c1.755-1.473,3.231-3.263,4.361-5.438l0.689-1.326c9.051-17.419,5.271-38.167-7.901-51.38
			c3.204-2.098,5.594-4.69,7.212-7.803l0.69-1.329c11.187-21.529,2.773-48.145-18.756-59.332l-78.074-40.568
			c-1.838-4.395-3.824-8.71-5.954-12.943c13.484-12.772,17.51-27.571,21.741-43.147c2.629-9.675,5.347-19.679,10.464-30.822
			c3.2-6.969,1.124-11.994-0.398-14.369c-3.744-5.84-11.717-8.801-23.695-8.801c-15.712,0-39.768,5.6-55.456,17.893
			c-4.064,3.185-7.776,6.673-11.085,10.39C307.669,9.809,277.508-0.046,246-0.046c-32.141,0-62.881,10.255-89.432,29.406
			c-3.549-4.136-7.582-8.011-12.05-11.512C128.83,5.553,104.774-0.046,89.062-0.046c-11.979,0-19.951,2.961-23.695,8.801
			c-1.523,2.375-3.6,7.4-0.399,14.369c5.118,11.143,7.835,21.147,10.464,30.822c4.408,16.228,8.588,31.612,23.477,44.74
			c-2.715,5.517-5.188,11.176-7.411,16.959l-67.279,34.959C2.69,161.791-5.724,188.407,5.463,209.935l0.69,1.329
			c1.618,3.113,4.008,5.705,7.212,7.803C0.193,232.28-3.587,253.028,5.463,270.445l0.691,1.33c1.129,2.174,2.606,3.964,4.36,5.436
			c-10.826,13.209-13.412,32.138-5.052,48.226l0.691,1.331c7.601,14.627,22.571,23.716,39.067,23.716
			c7.008,0,14.015-1.716,20.263-4.963l23.219-12.065c8.338,24.572,21.031,47.08,37.493,66.151c0.031,0.835,0.08,1.67,0.168,2.508
			l6.767,64.646c1.979,18.899,17.783,33.15,36.763,33.15c1.29,0,2.598-0.068,3.888-0.203l17.404-1.822
			c9.829-1.028,18.669-5.823,24.893-13.502c6.223-7.678,9.083-17.319,8.054-27.148l-0.198-1.895
			C231.204,456.433,238.569,457,246,457c8.269,0,16.459-0.692,24.52-2.041l-0.238,2.275c-1.029,9.83,1.831,19.472,8.054,27.149
			c6.224,7.679,15.064,12.474,24.894,13.502l17.404,1.822c1.289,0.135,2.598,0.203,3.888,0.203c0.001,0-0.001,0,0.001,0
			c18.978,0,34.784-14.252,36.763-33.15l6.767-64.646c0.188-1.8,0.243-3.594,0.175-5.37c16.11-19.439,28.406-42.263,36.311-67.08
			l30.515,15.855c6.248,3.247,13.254,4.963,20.263,4.963c16.496,0,31.466-9.089,39.068-23.719l0.689-1.325
			C503.432,309.35,500.846,290.42,490.021,277.211z M77.545,275.59l0.012,0.377c0.882,15.02,3.262,29.717,7.028,43.852
			L59.03,333.098c-0.511,0.266-1.027,0.511-1.545,0.744c-0.169,0.076-0.339,0.145-0.509,0.218c-0.354,0.151-0.709,0.299-1.067,0.436
			c-0.197,0.076-0.394,0.146-0.591,0.218c-0.34,0.123-0.682,0.238-1.024,0.348c-0.198,0.063-0.395,0.126-0.593,0.186
			c-0.366,0.108-0.733,0.207-1.101,0.301c-0.17,0.043-0.339,0.091-0.509,0.131c-0.535,0.127-1.07,0.241-1.607,0.338
			c-0.037,0.007-0.074,0.011-0.111,0.018c-0.502,0.088-1.005,0.161-1.508,0.224c-0.179,0.021-0.359,0.037-0.539,0.056
			c-0.363,0.038-0.727,0.072-1.09,0.097c-0.204,0.014-0.408,0.023-0.612,0.033c-0.347,0.017-0.692,0.026-1.039,0.03
			c-0.121,0.002-0.242,0.011-0.362,0.011c-0.071,0-0.142-0.007-0.213-0.007c-0.601-0.005-1.201-0.021-1.798-0.062
			c-0.032-0.002-0.063-0.006-0.095-0.009c-0.57-0.04-1.137-0.101-1.702-0.173c-0.172-0.022-0.344-0.047-0.515-0.072
			c-0.474-0.068-0.945-0.149-1.414-0.24c-0.131-0.025-0.264-0.048-0.395-0.075c-0.58-0.12-1.155-0.259-1.727-0.414
			c-0.14-0.037-0.277-0.08-0.416-0.12c-0.452-0.129-0.899-0.269-1.345-0.419c-0.163-0.055-0.326-0.109-0.488-0.167
			c-0.561-0.2-1.118-0.411-1.666-0.645c-0.024-0.01-0.048-0.021-0.072-0.032c-0.527-0.226-1.046-0.471-1.561-0.727
			c-0.156-0.077-0.31-0.157-0.463-0.237c-0.423-0.22-0.841-0.449-1.254-0.689c-0.118-0.069-0.238-0.134-0.356-0.204
			c-0.51-0.307-1.012-0.629-1.504-0.966c-0.118-0.08-0.232-0.165-0.349-0.247c-0.39-0.275-0.774-0.561-1.151-0.854
			c-0.136-0.106-0.272-0.212-0.407-0.32c-0.472-0.381-0.937-0.772-1.387-1.184c-0.008-0.007-0.016-0.016-0.024-0.022
			c-0.442-0.405-0.87-0.83-1.29-1.265c-0.121-0.125-0.239-0.252-0.357-0.379c-0.337-0.361-0.666-0.731-0.986-1.111
			c-0.089-0.105-0.18-0.208-0.268-0.314c-0.391-0.478-0.77-0.969-1.134-1.475c-0.083-0.114-0.16-0.232-0.241-0.349
			c-0.289-0.413-0.568-0.834-0.838-1.265c-0.094-0.15-0.189-0.3-0.281-0.452c-0.33-0.548-0.65-1.104-0.949-1.679l-0.69-1.328
			c-7.64-14.702-1.914-32.813,12.788-40.454l30.569-9.86c-0.751,0.073-1.516,0.145-2.288,0.214
			c-0.189,0.017-0.378,0.034-0.568,0.051c-0.748,0.065-1.502,0.13-2.264,0.19c-0.173,0.014-0.346,0.026-0.519,0.04
			c-0.668,0.052-1.339,0.102-2.014,0.149c-0.171,0.012-0.341,0.024-0.512,0.036c-0.764,0.053-1.53,0.101-2.298,0.146
			c-0.216,0.013-0.432,0.025-0.649,0.038c-0.781,0.044-1.563,0.085-2.344,0.121c-0.119,0.006-0.236,0.01-0.354,0.015
			c-0.706,0.031-1.41,0.059-2.112,0.083c-0.199,0.007-0.398,0.014-0.597,0.02c-0.767,0.024-1.53,0.043-2.287,0.057
			c-0.184,0.004-0.365,0.006-0.547,0.009c-0.702,0.011-1.398,0.017-2.087,0.019c-0.084,0-0.171,0.002-0.254,0.002
			c-0.031,0-0.061-0.001-0.092-0.001c-0.583,0-1.16-0.004-1.732-0.012c-0.202-0.003-0.398-0.008-0.598-0.012
			c-0.387-0.007-0.771-0.015-1.151-0.025c-0.237-0.007-0.47-0.015-0.704-0.023c-0.34-0.012-0.678-0.024-1.012-0.039
			c-0.236-0.011-0.471-0.022-0.704-0.034c-0.332-0.018-0.659-0.036-0.984-0.057c-0.221-0.015-0.443-0.028-0.66-0.044
			c-0.354-0.024-0.699-0.054-1.042-0.083c-0.177-0.015-0.357-0.028-0.532-0.045c-0.501-0.047-0.992-0.098-1.47-0.154
			c-0.138-0.017-0.27-0.036-0.406-0.053c-0.347-0.044-0.691-0.09-1.025-0.139c-0.178-0.026-0.349-0.056-0.522-0.083
			c-0.283-0.046-0.563-0.093-0.835-0.143c-0.177-0.032-0.351-0.065-0.523-0.1c-0.26-0.052-0.514-0.106-0.762-0.162
			c-0.162-0.037-0.323-0.073-0.48-0.111c-0.263-0.064-0.516-0.133-0.765-0.203c-0.124-0.034-0.253-0.067-0.374-0.104
			c-0.358-0.107-0.702-0.221-1.025-0.341c-0.055-0.021-0.103-0.043-0.156-0.063c-0.268-0.103-0.525-0.21-0.767-0.321
			c-0.101-0.047-0.192-0.097-0.289-0.146c-0.183-0.091-0.36-0.185-0.525-0.282c-0.096-0.057-0.187-0.115-0.276-0.174
			c-0.15-0.098-0.292-0.198-0.425-0.302c-0.079-0.062-0.158-0.122-0.23-0.186c-0.131-0.114-0.248-0.233-0.359-0.354
			c-0.053-0.058-0.112-0.113-0.161-0.173c-0.149-0.183-0.28-0.371-0.383-0.569l-0.69-1.328c-7.64-14.703-1.914-32.814,12.788-40.454
			l30.903-12.203c-0.409,0.054-0.839,0.105-1.282,0.155c-0.147,0.017-0.302,0.032-0.453,0.047c-0.301,0.032-0.605,0.063-0.919,0.093
			c-0.189,0.018-0.383,0.034-0.577,0.051c-0.294,0.025-0.592,0.05-0.896,0.074c-0.206,0.016-0.412,0.032-0.622,0.046
			c-0.311,0.022-0.627,0.043-0.946,0.063c-0.21,0.013-0.419,0.026-0.633,0.039c-0.351,0.02-0.709,0.037-1.069,0.054
			c-0.189,0.009-0.374,0.019-0.565,0.027c-0.548,0.023-1.104,0.044-1.668,0.061c-0.086,0.002-0.175,0.003-0.261,0.006
			c-0.486,0.013-0.978,0.024-1.474,0.032c-0.208,0.003-0.419,0.004-0.629,0.007c-0.382,0.004-0.764,0.007-1.15,0.008
			c-0.091,0-0.18,0.002-0.271,0.002c-0.306,0-0.613-0.002-0.921-0.004c-0.058,0-0.115,0-0.173-0.001
			c-0.496-0.004-0.994-0.012-1.494-0.022c-0.117-0.002-0.233-0.005-0.35-0.008c-0.409-0.009-0.819-0.021-1.229-0.035
			c-0.113-0.003-0.226-0.007-0.339-0.011c-0.5-0.018-1-0.039-1.5-0.062c-0.085-0.004-0.17-0.009-0.256-0.014
			c-0.424-0.021-0.848-0.045-1.271-0.072c-0.13-0.008-0.26-0.016-0.39-0.024c-0.487-0.032-0.973-0.066-1.456-0.105
			c-0.014-0.001-0.028-0.002-0.043-0.003c-0.496-0.04-0.989-0.084-1.479-0.131c-0.127-0.012-0.252-0.025-0.378-0.037
			c-0.399-0.04-0.796-0.083-1.191-0.127c-0.102-0.012-0.204-0.022-0.306-0.035c-0.478-0.056-0.951-0.116-1.419-0.18
			c-0.1-0.014-0.199-0.028-0.298-0.042c-0.381-0.054-0.759-0.11-1.133-0.168c-0.122-0.02-0.244-0.038-0.365-0.058
			c-0.456-0.074-0.908-0.151-1.352-0.234c-0.035-0.007-0.068-0.014-0.103-0.021c-0.41-0.077-0.812-0.159-1.209-0.243
			c-0.118-0.025-0.235-0.051-0.352-0.076c-0.357-0.079-0.709-0.16-1.055-0.245c-0.073-0.018-0.148-0.035-0.221-0.053
			c-0.404-0.102-0.798-0.208-1.185-0.319c-0.099-0.028-0.194-0.057-0.292-0.086c-0.304-0.09-0.602-0.183-0.894-0.278
			c-0.097-0.032-0.195-0.063-0.29-0.095c-0.361-0.123-0.714-0.25-1.054-0.381c-0.054-0.021-0.105-0.044-0.159-0.065
			c-0.288-0.115-0.567-0.233-0.838-0.355c-0.091-0.041-0.181-0.082-0.27-0.123c-0.277-0.13-0.545-0.263-0.801-0.4
			c-0.035-0.019-0.072-0.036-0.107-0.055c-0.283-0.155-0.55-0.316-0.807-0.481c-0.07-0.045-0.136-0.091-0.204-0.137
			c-0.2-0.134-0.39-0.272-0.571-0.414c-0.055-0.042-0.112-0.084-0.165-0.127c-0.219-0.179-0.424-0.363-0.613-0.552
			c-0.04-0.04-0.074-0.081-0.112-0.121c-0.149-0.158-0.288-0.319-0.416-0.484c-0.043-0.057-0.087-0.113-0.128-0.17
			c-0.148-0.206-0.285-0.416-0.398-0.634l-0.69-1.329c-7.64-14.702-1.914-32.813,12.788-40.453l54.542-28.341
			c-5.299,19.019-8.059,39.079-8.059,59.629L77.545,275.59z M410.138,20.983c-0.935,2.195-1.791,4.351-2.579,6.467
			c-3.071,8.233-5.148,15.863-7.039,22.826c-3.778,13.907-6.701,24.644-15.263,34.025c-3.399-5.679-7.066-11.18-11.013-16.467
			c-1.013-1.356-2.046-2.695-3.094-4.023c-0.397-0.504-0.803-1.001-1.205-1.5c-0.323-0.401-0.642-0.807-0.968-1.206
			c1.658-5.296,4.855-10.352,8.833-15.013c9.273-10.867,22.76-19.59,30.763-24.216C409.121,21.559,409.645,21.261,410.138,20.983z
			 M353.578,28.867c12.361-9.687,33.35-14.913,46.821-14.913c0.798,0,1.539,0.02,2.245,0.051
			c-10.81,6.32-29.258,19.844-37.922,42.094c-6.203-7.063-12.798-13.504-19.729-19.3C347.577,33.985,350.444,31.322,353.578,28.867z
			 M88.942,50.276c-2.648-9.749-5.65-20.799-11.251-32.995c-0.248-0.54-0.348-0.903-0.388-1.111
			c0.862-0.718,4.209-2.216,11.759-2.216c5.792,0,12.974,0.972,20.262,2.843c9.664,2.481,19.513,6.548,26.56,12.07
			c3.582,2.806,6.816,5.882,9.671,9.145c-6.777,5.795-13.227,12.212-19.292,19.232c-0.075,0.087-0.147,0.176-0.222,0.263
			c-7.596,8.825-14.365,18.345-20.271,28.432C95.981,76.169,92.942,64.999,88.942,50.276z M205.204,475.569
			c-3.868,4.772-9.363,7.753-15.474,8.393l-12.646,1.324l-4.758,0.498c-0.808,0.084-1.625,0.127-2.431,0.127
			c-11.791,0-21.609-8.859-22.839-20.607l-2.958-28.26l-2.239-21.386c19.992,18.067,43.086,30.575,67.699,36.798l0.653,6.236
			C210.851,464.803,209.072,470.796,205.204,475.569z M347.36,465.303c-1.23,11.749-11.049,20.609-22.84,20.608
			c-0.806,0-1.623-0.043-2.431-0.127l-17.404-1.822c-6.11-0.64-11.605-3.62-15.474-8.393c-3.868-4.773-5.646-10.767-5.007-16.877
			l0.721-6.889c24.781-6.72,47.959-19.833,67.889-38.604L347.36,465.303z M400.843,203.433v65.296l-0.377,6.417
			c-0.683,11.623-2.32,23.032-4.853,34.104c-1.071,4.684-2.309,9.304-3.697,13.856c-6.338,20.775-15.94,40.079-28.432,56.99
			c-1.54,2.085-3.122,4.134-4.75,6.144c-1.702,2.104-3.452,4.165-5.248,6.183c-0.643,0.722-1.284,1.444-1.938,2.155
			c-18.64,20.241-40.95,34.578-65.046,42.166c-2.401,0.757-4.819,1.447-7.254,2.068c-2.389,0.609-4.792,1.154-7.209,1.632
			C263.502,442.132,254.797,443,246,443c-7.953,0-15.829-0.716-23.575-2.098c-2.411-0.43-4.81-0.926-7.193-1.486
			c-2.429-0.57-4.842-1.209-7.239-1.914c-25.042-7.364-48.244-21.976-67.521-42.902c-0.006-0.007-0.013-0.014-0.02-0.021
			c-1.905-2.068-3.757-4.188-5.561-6.352c-0.001-0.002-0.002-0.003-0.003-0.004c-1.698-2.036-3.352-4.113-4.958-6.229
			c-2.957-3.892-5.754-7.917-8.395-12.061c-8.439-13.242-15.237-27.707-20.247-43.017c-1.474-4.505-2.799-9.079-3.959-13.72
			c-3.059-12.241-5.013-24.921-5.784-37.864l-0.387-81.051c0-24.34,4.171-47.564,11.711-68.769c2.247-6.32,4.793-12.459,7.62-18.395
			c0.285-0.598,0.569-1.195,0.859-1.789c0.741-1.514,1.493-3.019,2.27-4.505c1.085-2.078,2.213-4.122,3.368-6.144
			c9.91-17.352,22.324-32.604,36.645-45.041c1.796-1.56,3.623-3.073,5.478-4.543c1.85-1.466,3.731-2.882,5.638-4.256
			C188.381,23.805,216.219,13.954,246,13.954c29.031,0,56.217,9.36,79.463,25.614c1.917,1.34,3.806,2.73,5.668,4.164
			c1.864,1.435,3.701,2.914,5.508,4.438c14.722,12.42,27.506,27.771,37.703,45.324c1.169,2.014,2.297,4.062,3.398,6.133
			c0.03,0.057,0.061,0.113,0.091,0.17c1.067,2.011,2.1,4.049,3.1,6.111c2.224,4.586,4.286,9.29,6.165,14.112
			c8.828,22.658,13.747,47.803,13.747,74.261V203.433z M469.861,223.537c14.702,7.64,20.428,25.751,12.788,40.454l-0.69,1.328
			c-0.103,0.198-0.234,0.387-0.384,0.569c-0.048,0.06-0.107,0.115-0.161,0.173c-0.11,0.121-0.228,0.24-0.359,0.354
			c-0.072,0.063-0.151,0.124-0.229,0.186c-0.134,0.104-0.275,0.204-0.426,0.302c-0.09,0.059-0.18,0.117-0.275,0.174
			c-0.166,0.098-0.343,0.191-0.525,0.282c-0.097,0.049-0.188,0.099-0.289,0.146c-0.242,0.111-0.499,0.219-0.767,0.321
			c-0.054,0.021-0.102,0.043-0.156,0.063c-0.324,0.12-0.668,0.233-1.025,0.341c-0.12,0.036-0.25,0.069-0.374,0.104
			c-0.249,0.07-0.501,0.139-0.765,0.203c-0.156,0.038-0.318,0.074-0.479,0.111c-0.249,0.056-0.503,0.11-0.763,0.162
			c-0.173,0.034-0.346,0.067-0.523,0.1c-0.272,0.05-0.552,0.097-0.835,0.143c-0.174,0.027-0.345,0.057-0.522,0.083
			c-0.334,0.049-0.678,0.095-1.025,0.139c-0.136,0.017-0.268,0.036-0.405,0.053c-0.479,0.057-0.97,0.107-1.471,0.154
			c-0.174,0.017-0.354,0.03-0.531,0.045c-0.344,0.029-0.689,0.059-1.042,0.083c-0.218,0.016-0.439,0.029-0.66,0.044
			c-0.325,0.021-0.652,0.039-0.984,0.057c-0.233,0.012-0.468,0.023-0.704,0.034c-0.334,0.015-0.672,0.027-1.012,0.039
			c-0.234,0.009-0.467,0.017-0.703,0.023c-0.38,0.011-0.766,0.019-1.151,0.025c-0.2,0.004-0.397,0.009-0.599,0.012
			c-0.571,0.008-1.149,0.012-1.732,0.012c-0.03,0-0.061,0.001-0.092,0.001c-0.084,0-0.17-0.002-0.254-0.002
			c-0.689-0.002-1.386-0.008-2.088-0.019c-0.183-0.003-0.364-0.005-0.548-0.009c-0.757-0.014-1.52-0.032-2.286-0.057
			c-0.199-0.006-0.398-0.013-0.598-0.02c-0.701-0.024-1.405-0.052-2.11-0.083c-0.119-0.005-0.237-0.009-0.356-0.015
			c-0.78-0.036-1.561-0.077-2.342-0.121c-0.218-0.013-0.435-0.025-0.652-0.038c-0.767-0.045-1.532-0.093-2.294-0.146
			c-0.174-0.012-0.346-0.024-0.519-0.037c-0.672-0.047-1.34-0.097-2.005-0.148c-0.176-0.014-0.352-0.026-0.527-0.04
			c-0.759-0.061-1.512-0.124-2.257-0.19c-0.193-0.017-0.384-0.034-0.575-0.051c-0.771-0.069-1.534-0.141-2.284-0.214l30.569,9.86
			c14.702,7.641,20.428,25.752,12.788,40.454l-0.69,1.328c-0.299,0.574-0.618,1.13-0.947,1.676
			c-0.094,0.154-0.188,0.306-0.284,0.458c-0.269,0.428-0.546,0.848-0.833,1.258c-0.083,0.117-0.162,0.238-0.246,0.354
			c-0.363,0.504-0.74,0.994-1.131,1.471c-0.09,0.109-0.184,0.214-0.274,0.321c-0.318,0.377-0.645,0.744-0.979,1.103
			c-0.12,0.129-0.24,0.259-0.362,0.385c-0.416,0.43-0.839,0.85-1.275,1.251c-0.014,0.012-0.025,0.024-0.038,0.036
			c-0.448,0.41-0.912,0.8-1.382,1.18c-0.137,0.11-0.274,0.217-0.413,0.325c-0.375,0.292-0.756,0.574-1.144,0.848
			c-0.118,0.084-0.234,0.171-0.354,0.253c-0.491,0.336-0.992,0.657-1.501,0.962c-0.12,0.072-0.241,0.139-0.361,0.208
			c-0.411,0.239-0.827,0.468-1.248,0.687c-0.155,0.08-0.311,0.161-0.467,0.239c-0.513,0.255-1.029,0.498-1.555,0.724
			c-0.026,0.011-0.052,0.023-0.077,0.035c-0.548,0.232-1.104,0.443-1.664,0.643c-0.163,0.059-0.327,0.113-0.49,0.168
			c-0.444,0.15-0.892,0.289-1.343,0.419c-0.139,0.04-0.277,0.083-0.417,0.12c-0.571,0.155-1.146,0.294-1.726,0.414
			c-0.132,0.027-0.264,0.05-0.396,0.075c-0.469,0.091-0.94,0.172-1.414,0.24c-0.171,0.025-0.343,0.05-0.515,0.072
			c-0.565,0.072-1.133,0.133-1.703,0.173c-0.031,0.003-0.062,0.007-0.095,0.009c-0.598,0.04-1.197,0.057-1.798,0.062
			c-0.071,0-0.143,0.007-0.214,0.007c-0.12,0-0.241-0.009-0.362-0.011c-0.346-0.004-0.692-0.014-1.038-0.03
			c-0.204-0.01-0.408-0.02-0.612-0.033c-0.363-0.024-0.728-0.059-1.092-0.097c-0.179-0.019-0.357-0.034-0.536-0.056
			c-0.507-0.062-1.012-0.137-1.518-0.226c-0.034-0.006-0.067-0.01-0.102-0.016c-0.538-0.097-1.075-0.211-1.61-0.338
			c-0.168-0.04-0.334-0.087-0.501-0.129c-0.371-0.095-0.741-0.194-1.11-0.304c-0.195-0.059-0.391-0.121-0.585-0.183
			c-0.346-0.11-0.689-0.228-1.032-0.351c-0.195-0.07-0.391-0.141-0.584-0.216c-0.36-0.138-0.718-0.286-1.075-0.438
			c-0.168-0.072-0.336-0.14-0.503-0.215c-0.519-0.233-1.035-0.479-1.547-0.745l-33.088-17.193
			c2.672-10.839,4.537-21.989,5.54-33.348l0.198-1.432l0.687-86.843c0-22.425-3.284-44.274-9.58-64.821l64.599,33.566
			c14.702,7.64,20.428,25.751,12.788,40.453l-0.69,1.329c-0.113,0.218-0.251,0.428-0.398,0.634
			c-0.041,0.057-0.085,0.113-0.128,0.169c-0.129,0.166-0.268,0.328-0.418,0.486c-0.037,0.039-0.071,0.08-0.109,0.119
			c-0.189,0.19-0.395,0.374-0.614,0.553c-0.053,0.042-0.108,0.083-0.162,0.125c-0.183,0.143-0.374,0.281-0.575,0.417
			c-0.067,0.045-0.133,0.09-0.201,0.134c-0.258,0.166-0.525,0.328-0.81,0.483c-0.032,0.018-0.067,0.034-0.1,0.051
			c-0.26,0.139-0.53,0.273-0.811,0.404c-0.087,0.041-0.175,0.081-0.264,0.121c-0.274,0.123-0.557,0.243-0.848,0.359
			c-0.051,0.02-0.1,0.042-0.15,0.061c-0.341,0.133-0.695,0.26-1.059,0.383c-0.093,0.032-0.188,0.062-0.282,0.093
			c-0.295,0.097-0.596,0.19-0.903,0.281c-0.095,0.028-0.188,0.057-0.284,0.084c-0.388,0.111-0.784,0.218-1.189,0.32
			c-0.069,0.018-0.142,0.034-0.212,0.051c-0.35,0.086-0.704,0.168-1.065,0.248c-0.114,0.025-0.229,0.051-0.345,0.075
			c-0.402,0.085-0.809,0.167-1.223,0.246c-0.03,0.006-0.061,0.012-0.091,0.018c-0.445,0.083-0.898,0.16-1.356,0.235
			c-0.119,0.02-0.238,0.038-0.358,0.057c-0.377,0.06-0.758,0.116-1.142,0.17c-0.098,0.014-0.193,0.028-0.291,0.042
			c-0.47,0.064-0.944,0.125-1.423,0.181c-0.1,0.012-0.2,0.022-0.3,0.034c-0.396,0.045-0.796,0.088-1.198,0.128
			c-0.124,0.013-0.248,0.025-0.373,0.037c-0.492,0.047-0.986,0.092-1.483,0.132c-0.011,0-0.022,0.001-0.033,0.002
			c-0.486,0.039-0.977,0.073-1.467,0.105c-0.128,0.008-0.256,0.017-0.385,0.024c-0.425,0.026-0.851,0.05-1.277,0.072
			c-0.083,0.004-0.167,0.009-0.25,0.013c-0.501,0.024-1.002,0.045-1.503,0.062c-0.111,0.004-0.223,0.007-0.335,0.011
			c-0.412,0.014-0.823,0.025-1.233,0.035c-0.116,0.002-0.231,0.005-0.347,0.008c-0.5,0.01-0.999,0.018-1.495,0.022
			c-0.058,0-0.114,0-0.172,0.001c-0.309,0.002-0.616,0.004-0.922,0.004c-0.091,0-0.181-0.002-0.271-0.002
			c-0.387-0.001-0.77-0.004-1.151-0.008c-0.21-0.002-0.42-0.003-0.628-0.007c-0.498-0.008-0.99-0.019-1.479-0.032
			c-0.085-0.002-0.172-0.003-0.256-0.006c-0.565-0.017-1.121-0.037-1.67-0.061c-0.19-0.008-0.375-0.018-0.562-0.027
			c-0.36-0.018-0.72-0.035-1.071-0.055c-0.214-0.012-0.422-0.025-0.632-0.039c-0.319-0.02-0.636-0.041-0.946-0.063
			c-0.21-0.015-0.417-0.03-0.622-0.046c-0.304-0.023-0.602-0.048-0.896-0.074c-0.193-0.017-0.387-0.034-0.576-0.051
			c-0.314-0.03-0.618-0.061-0.919-0.093c-0.15-0.016-0.306-0.031-0.453-0.047c-0.443-0.049-0.873-0.101-1.282-0.155L469.861,223.537
			z"/>
		<path fill="#333333" d="M306.282,96.97c3.615,2.638,8.066,4.198,12.884,4.198c3.385,0,6.589-0.769,9.449-2.14
			c2.154-1.033,4.11-2.41,5.804-4.057c1.707-1.659,3.142-3.594,4.237-5.734c1.53-2.988,2.398-6.371,2.398-9.958
			c0-4.817-1.561-9.269-4.197-12.884c-1.503-2.059-3.352-3.849-5.468-5.275c-1.951-1.316-4.127-2.321-6.456-2.956
			c-1.838-0.501-3.771-0.773-5.768-0.773c-0.431,0-0.857,0.016-1.281,0.04c-11.492,0.664-20.607,10.19-20.607,21.849
			C297.277,86.549,300.825,92.989,306.282,96.97z"/>
		<path fill="#333333" d="M156.976,92.827c1.238,1.569,2.685,2.964,4.301,4.143c0.283,0.206,0.57,0.406,0.863,0.599
			c3.451,2.272,7.58,3.599,12.021,3.599c12.089,0,21.889-9.8,21.889-21.889c0-4.817-1.56-9.269-4.198-12.884
			c-3.98-5.456-10.42-9.004-17.691-9.004c-0.864,0-1.715,0.056-2.554,0.153c-2.383,0.277-4.649,0.935-6.736,1.915
			c-2.334,1.096-4.443,2.588-6.239,4.396c-3.931,3.957-6.36,9.407-6.36,15.425c0,2.417,0.397,4.738,1.121,6.912
			C154.201,88.62,155.423,90.859,156.976,92.827z"/>
		<path fill="#333333" d="M318.754,193.375c6.506-6.629,11-14.073,13.26-21.988c1.118-3.918,1.697-7.949,1.697-12.054
			c0-11.657-4.625-22.724-13.259-32.243c-3.761-4.146-8.271-8.002-13.509-11.479C290.564,104.737,268.921,98.748,246,98.748
			s-44.564,5.989-60.943,16.863c-2.726,1.81-5.235,3.732-7.568,5.733c-4.054,3.479-7.519,7.223-10.326,11.187
			c-5.804,8.197-8.874,17.304-8.874,26.801c0,1.851,0.136,3.684,0.366,5.501c1.435,11.322,7.286,21.917,16.989,30.857
			c2.185,2.013,4.567,3.939,7.136,5.773c0.75,0.535,1.497,1.071,2.278,1.59c16.379,10.874,38.022,16.863,60.943,16.863
			s44.564-5.989,60.943-16.863C311.415,200.086,315.354,196.84,318.754,193.375z M246,205.917c-20.197,0-39.09-5.159-53.2-14.526
			c-9.632-6.395-16.095-14.174-18.906-22.521c-0.248-0.736-0.468-1.476-0.658-2.221c-0.616-2.406-0.947-4.849-0.947-7.317
			c0-8.244,3.507-16.243,10.062-23.301c2.9-3.124,6.393-6.064,10.45-8.758c14.109-9.367,33.003-14.526,53.2-14.526
			c20.197,0,39.09,5.159,53.2,14.526c8.281,5.499,14.232,12.018,17.525,19.043c1.966,4.194,2.985,8.569,2.985,13.015
			c0,11.892-7.284,23.277-20.511,32.058C285.09,200.759,266.197,205.917,246,205.917z"/>
		<ellipse fill="#333333" cx="265.781" cy="158.833" rx="9.516" ry="23.036"/>
		<ellipse fill="#333333" cx="227.22" cy="158.833" rx="9.516" ry="23.036"/>
		<path fill="#333333" d="M200.742,264.87c-3.866,0-7,3.134-7,7v65.031c0,9.048-4.049,17.163-10.424,22.646
			c-5.23,4.498-12.024,7.226-19.448,7.226c-4.858,0-9.445-1.174-13.504-3.24c-9.701-4.94-16.366-15.019-16.366-26.631v-26.982
			v-15.777V271.87c0-3.866-3.134-7-7-7s-7,3.134-7,7v29.546v15.777v19.708c0,14.217,6.803,26.87,17.318,34.892
			c1.488,1.136,3.052,2.173,4.68,3.113c0.466,0.27,0.936,0.533,1.412,0.786c2.379,1.26,4.884,2.313,7.496,3.123
			c4.099,1.271,8.453,1.957,12.964,1.957c8.397,0,16.249-2.376,22.925-6.484c2.356-1.45,4.568-3.114,6.604-4.97
			c1.8-1.641,3.455-3.437,4.963-5.354c5.867-7.461,9.38-16.856,9.38-27.062v-5.92v-42.676v-4.159V271.87
			C207.742,268.004,204.608,264.87,200.742,264.87z"/>
		<path fill="#333333" d="M361.742,264.87c-3.866,0-7,3.134-7,7v16.144v15.777v9.746v23.364c0,10.786-5.748,20.254-14.34,25.506
			c-4.528,2.768-9.847,4.365-15.531,4.365c-7.044,0-13.521-2.457-18.635-6.551c-1.204-0.964-2.334-2.015-3.376-3.15
			c-4.878-5.318-7.86-12.401-7.86-20.17V271.87c0-3.866-3.134-7-7-7s-7,3.134-7,7v65.031c0,10.158,3.479,19.513,9.297,26.957
			c0.654,0.837,1.33,1.655,2.041,2.441c1.614,1.784,3.378,3.429,5.262,4.929c2.052,1.633,4.247,3.092,6.572,4.342
			c6.17,3.315,13.218,5.202,20.699,5.202c5.799,0,11.333-1.142,16.404-3.194c2.566-1.038,5.012-2.313,7.312-3.798
			c2.043-1.318,3.978-2.791,5.77-4.421c8.832-8.031,14.386-19.608,14.386-32.458v-25.836v-15.777v-0.334V271.87
			C368.742,268.004,365.608,264.87,361.742,264.87z"/>
	</g>
</g>
</svg>
