<?xml version="1.0" encoding="utf-8"?>
<!-- Generator: Adobe Illustrator 16.0.0, SVG Export Plug-In . SVG Version: 6.00 Build 0)  -->
<!DOCTYPE svg PUBLIC "-//W3C//DTD SVG 1.1//EN" "http://www.w3.org/Graphics/SVG/1.1/DTD/svg11.dtd">
<svg version="1.1" id="Layer_1_copy" xmlns="http://www.w3.org/2000/svg" xmlns:xlink="http://www.w3.org/1999/xlink" x="0px"
	 y="0px" width="475px" height="475px" viewBox="0 0 475 475" enable-background="new 0 0 475 475" xml:space="preserve">
<g>
	<rect x="225" y="225" fill="none" width="25" height="25"/>
	<rect x="150" y="225" fill="none" width="25" height="25"/>
	<polygon fill="#CC5261" points="450,225 450,200 425,200 425,175 425,150 425,125 400,125 375,125 375,150 375,175 375,200 
		400,200 400,225 400,250 400,275 425,275 450,275 475,275 475,250 475,225 	"/>
	<polygon fill="#CC5261" points="375,325 375,300 350,300 350,325 325,325 300,325 300,350 275,350 275,375 300,375 325,375 
		350,375 350,400 350,425 350,450 375,450 400,450 400,425 400,400 400,375 400,350 375,350 	"/>
	<polygon fill="#CC5261" points="350,100 350,75 325,75 325,50 325,25 300,25 300,50 300,75 300,100 325,100 	"/>
	<path fill="#CC5261" d="M275,275h25v-25v-25v-25v-25h-25h-25h-25h-25h-25h-25h-25v25v25v25v25h25v25h25h25h25h25h25V275z M225,225
		h25v25h-25V225z M150,225h25v25h-25V225z"/>
	<polygon fill="#CC5261" points="275,150 275,125 275,100 250,100 225,100 225,125 225,150 250,150 	"/>
	<polygon fill="#CC5261" points="150,375 150,400 150,425 150,450 175,450 175,425 200,425 200,400 200,375 175,375 	"/>
	<polygon fill="#CC5261" points="125,100 125,125 125,150 150,150 175,150 175,125 175,100 150,100 	"/>
	<polygon fill="#CC5261" points="150,75 150,50 125,50 125,25 100,25 100,50 100,75 125,75 	"/>
</g>
<g>
	<polygon fill="#FFFFFF" points="450,275 425,275 400,275 400,250 400,225 400,200 375,200 375,225 375,250 375,275 375,300 
		375,325 375,350 400,350 400,375 425,375 425,350 450,350 450,325 450,300 475,300 475,275 	"/>
	<polygon fill="#FFFFFF" points="275,125 275,150 250,150 225,150 225,125 225,100 200,100 200,125 200,150 200,175 225,175 
		250,175 275,175 300,175 300,150 300,125 300,100 275,100 	"/>
	<polygon fill="#FFFFFF" points="125,150 125,125 125,100 100,100 100,125 100,150 100,175 125,175 150,175 175,175 175,150 
		150,150 	"/>
	<polygon fill="#FFFFFF" points="100,300 100,275 75,275 75,250 75,225 50,225 50,250 50,275 25,275 25,300 0,300 0,325 25,325 
		25,350 50,350 50,375 75,375 75,400 100,400 125,400 125,375 125,350 125,325 100,325 	"/>
</g>
<g>
	<path fill="none" d="M250,100h-25h-25v25v25v25h-25v-25v-25v-25h-25h-25h-25v25v25v25h25v25v25v25v25h25v25h25h25h25h25h25v-25h25
		v-25v-25v-25v-25v-25v-25v-25h-25H250z M175,250h-25v-25h25V250z M250,250h-25v-25h25V250z"/>
	<polygon fill="#F49DCB" points="350,100 325,100 300,100 300,125 300,150 300,175 300,200 300,225 300,250 300,275 275,275 
		275,300 250,300 225,300 200,300 175,300 150,300 150,275 125,275 125,250 125,225 125,200 125,175 100,175 100,150 100,125 
		100,100 125,100 150,100 175,100 175,125 175,150 175,175 200,175 200,150 200,125 200,100 225,100 250,100 275,100 300,100 
		300,75 300,50 300,25 300,0 275,0 275,25 275,50 250,50 225,50 200,50 175,50 150,50 150,75 125,75 100,75 100,50 100,25 75,25 
		75,50 75,75 75,100 75,125 75,150 50,150 50,175 25,175 25,200 25,225 0,225 0,250 0,275 0,300 25,300 25,275 50,275 50,250 
		50,225 75,225 75,250 75,275 100,275 100,300 100,325 125,325 125,350 125,375 125,400 125,425 125,450 150,450 150,425 150,400 
		150,375 175,375 200,375 225,375 250,375 275,375 275,350 300,350 300,325 325,325 350,325 350,300 375,300 375,275 375,250 
		375,225 375,200 375,175 375,150 375,125 375,100 	"/>
	<rect x="225" y="225" fill="#F49DCB" width="25" height="25"/>
	<rect x="150" y="225" fill="#F49DCB" width="25" height="25"/>
</g>
</svg>
